<?xml version="1.0" standalone="no"?>
<!DOCTYPE svg PUBLIC "-//W3C//DTD SVG 1.1//EN" "http://www.w3.org/Graphics/SVG/1.1/DTD/svg11.dtd" >
<svg xmlns="http://www.w3.org/2000/svg">
<metadata>Generated by IcoMoon</metadata>
<defs>
<font id="icomoon" horiz-adv-x="1024">
<font-face units-per-em="1024" ascent="960" descent="-64" />
<missing-glyph horiz-adv-x="1024" />
<glyph unicode="&#x20;" horiz-adv-x="512" d="" />
<glyph unicode="&#xe900;" glyph-name="iconfont-activity" d="M511.567 881.090c-239.172 0-433.088-193.867-433.088-433.134 0-239.178 193.916-433.047 433.088-433.047 239.269 0 433.138 193.866 433.138 433.047 0 239.266-193.868 433.134-433.138 433.134zM701.316 725.319l-109.663-174.579c-79.617 42.028-159.795 0-159.795 0l-109.102 174.579c210.764 142.102 378.56 0 378.56 0zM381.403 138.104c-233.323 100.723-204.258 318.746-204.258 318.746l206.131 1.867c7.628-89.676 86.309-134.516 86.309-134.516l-88.181-186.096zM511.567 391.88c-30.891 0-56.116 25.090-56.116 56.077 0 31.076 25.226 56.165 56.116 56.165 30.987 0 56.215-25.089 56.215-56.165-0.001-30.987-25.229-56.077-56.215-56.077zM643.513 137.916l-88.23 186.378c78.26 44.465 85.934 134.704 85.934 134.704l205.899-1.967c6.457-254.054-203.603-319.115-203.603-319.115z" />
<glyph unicode="&#xe901;" glyph-name="iconfont-addressInfo" d="M508.305-54.151c0 0-380.307 423.808-380.307 633.844 0 210.046 170.27 380.307 380.307 380.307s380.307-170.26 380.307-380.307c0-210.037-380.307-633.844-380.307-633.844zM508.305 911.243c-183.103 0-331.549-150.621-331.549-336.425s331.549-560.709 331.549-560.709 331.549 374.904 331.549 560.709c0 185.804-148.446 336.425-331.549 336.425zM508.305 452.924c-87.519 0-158.461 70.942-158.461 158.461s70.942 158.461 158.461 158.461 158.461-70.942 158.461-158.461c0-87.51-70.942-158.461-158.461-158.461zM508.305 725.965c-64.623 0-117.017-52.395-117.017-117.017s52.395-117.017 117.017-117.017c64.633 0 117.017 52.395 117.017 117.017s-52.385 117.017-117.017 117.017z" />
<glyph unicode="&#xe902;" glyph-name="iconfont-advertisement" d="M142.868 429.445h526.172v-105.923h-526.172v105.923zM142.868 266.465h420.905v-105.923h-420.905v105.923zM945.193 287.273v-158.556c0-21.832-17.695-39.608-39.363-39.608h-787.661c-21.75 0-39.363 17.777-39.363 39.608v158.556h-78.807v-158.556c0-65.7 52.961-118.866 118.17-118.866h787.661c65.208 0 118.17 53.207 118.17 118.866v158.556h-78.807zM505.733 486.953h-56.566l-40.468 109.24h-165.192l-38.175-109.24h-56.525l151.060 399.237h54.764l151.101-399.237zM392.806 641.29l-59.884 165.97c-1.925 5.325-3.973 14.623-6.144 27.853h-1.311c-1.925-12.001-3.973-21.299-6.39-27.853l-59.433-165.97h133.161zM563.077 486.953v399.196h113.254c60.088 0 110.1-17.613 149.914-52.838 39.936-35.226 59.802-82.493 59.802-141.804 0-61.85-19.866-111.411-59.802-148.726-39.895-37.274-91.218-55.869-154.051-55.869l-109.117 0.041zM614.318 840.274v-307.732h57.59c50.34 0 89.62 13.804 117.965 41.492 28.18 27.648 42.353 66.437 42.353 116.244s-14.5 87.286-43.54 112.394c-29.041 25.068-67.174 37.601-114.483 37.601h-59.884z" />
<glyph unicode="&#xe903;" glyph-name="iconfont-advertisePlace" horiz-adv-x="1037" d="M901.12 322.048q-19.456 17.408-37.376 32.768t-33.28 27.648h136.192q17.408 0 26.624-9.216t9.216-19.456q0-11.264-9.216-21.504t-26.624-10.24h-65.536zM940.032 450.048l-896 2.048v429.056q0 32.768 23.040 55.808t55.808 23.040h739.328q32.768 0 55.296-23.040t22.528-55.808v-431.104zM672.768 331.264q0-2.048 0.512-4.608t0.512-4.608h-662.528q-16.384 0-24.064 9.216t-7.68 20.48q0 10.24 7.68 20.48t24.064 10.24h695.296q-14.336-11.264-24.064-24.576t-9.728-26.624zM428.032 255.488h128v-256q0-26.624-18.944-45.056t-45.568-18.432-45.056 18.432-18.432 45.056v256zM1001.472 166.4q14.336-11.264 14.848-31.744t-10.752-28.672q-17.408-14.336-45.568-31.744t-59.392-36.352-60.416-37.376-47.616-33.792q-23.552-19.456-35.328-19.968t-11.776 29.184v49.152q0 19.456-9.216 29.184t-24.576 9.728h-58.368q-14.336 0-25.088 7.168t-10.752 25.6v52.224q0 30.72 9.728 37.376t35.328 6.656q12.288 0 9.728 0t-5.12-0.512 2.56-0.512h34.816q22.528 0 31.744 15.872t9.216 35.328v48.128q0 20.48 8.704 26.112t26.112-8.704q18.432-14.336 48.128-32.768t61.952-37.888 62.464-38.4 48.64-33.28z" />
<glyph unicode="&#xe904;" glyph-name="iconfont-advisory" d="M813.123 570.854c-14.006 7.381-27.335 14.405-41.107 21.664 0 6.088 0 12.512 0 19.611-2.544 0.079-4.73 0.206-6.917 0.206-52.015 0.012-104.029 0.076-156.044-0.028-16.517-0.033-31.86 3.901-45.599 13.047-24.43 16.264-37.43 39.298-37.628 68.61-0.4 59.343-0.122 118.69-0.124 178.036 0 2.22 0 4.439 0 7.27-2.504 0-4.381 0-6.259 0-120.262 0-240.524-0.026-360.786 0.028-16.725 0.007-29.764-6.439-38.404-20.97-3.543-5.958-5.26-12.51-5.348-19.461-0.023-1.745-0.019-3.49-0.019-5.236-0.001-257.106-0.005-514.211 0.037-771.317 0.001-4.339 0.114-8.768 0.954-13 3.76-18.934 20.179-32.427 39.449-32.747 1.396-0.024 2.793-0.010 4.189-0.010 189.382 0 378.765-0.013 568.146 0.070 5.004 0.002 10.192 0.39 14.977 1.728 17.313 4.843 28.965 20.17 29.356 38.366 0.266 12.387 0.193 24.787-0.003 37.176-0.055 3.472 0.907 5.279 4.255 6.653 6.763 2.774 13.28 6.145 20.507 9.556 4.969-4.989 10.177-10.090 15.192-15.376 0.827-0.872 1.128-2.552 1.121-3.856-0.083-13.61 0.335-27.26-0.562-40.821-2.377-35.968-31.452-67.389-67.116-73.103-4.802-0.77-9.714-1.191-14.576-1.192-191.474-0.059-382.948-0.083-574.423-0.027-42.34 0.012-76.619 30.508-81.888 72.572-0.432 3.45-0.426 6.969-0.426 10.455-0.018 259.724-0.040 519.448 0.008 779.172 0.007 40.618 28.624 74.329 68.63 81.106 4.794 0.813 9.724 1.152 14.591 1.154 130.561 0.061 261.12 0.037 391.681 0.118 3.264 0.002 5.468-0.958 7.682-3.345 82.364-88.823 164.787-177.59 247.243-266.326 2.015-2.168 3.598-4.13 2.446-7.326-0.858-2.38-0.069-4.493 2.023-5.95 4.204-2.926 4.907-6.991 4.833-11.855-0.247-16.229-0.093-32.464-0.093-48.697 0-1.864 0-3.728 0-5.954zM567.775 844.027c-0.346-0.158-0.691-0.315-1.037-0.473-0.064-1.329-0.186-2.658-0.186-3.987-0.009-47.962-0.041-95.925 0.059-143.888 0.008-3.967 0.503-8.044 1.499-11.882 4.716-18.182 20.625-30.487 39.587-30.527 44.3-0.094 88.6-0.036 132.9-0.025 1.491 0 2.982 0.166 5.709 0.327-60.021 64.032-119.276 127.243-178.531 190.454zM443.705 345.142c-0.077 124.87 100.888 225.647 225.771 225.822 122.743 0.173 225.349-99.278 225.662-224.934 0.311-125.341-100.625-226.615-225.555-226.644-126.426-0.028-226.342 102.951-225.877 225.756zM484.56 345.369c-0.065-102.169 82.631-185.084 184.664-185.154 102.007-0.070 185.077 82.855 185.128 184.803 0.050 102.131-82.684 184.97-184.779 185.012-102.27 0.043-184.948-82.477-185.013-184.661zM422.129 242.489c7.304-13.87 14.253-27.063 21.394-40.623-75.148 0-150.069 0-224.954 0-1.068 3.846-1.415 30.183-0.558 39.633 0.108 0.126 0.208 0.263 0.33 0.375 0.128 0.118 0.267 0.282 0.419 0.304 0.857 0.124 1.718 0.299 2.579 0.299 66.989 0.014 133.978 0.013 200.791 0.013zM422.882 611.484c0-1.773 0-3.329 0-4.884 0-11.497 0-22.994 0-34.384-3.902-1.276-197.626-1.657-204.814-0.444 0 13.096 0 26.257 0 39.435 3.528 1.162 197.127 1.551 204.814 0.277zM422.608 488.517c0-13.473 0-26.644 0-40.142-68.226 0-136.199 0-204.536 0 0 13.285 0 26.461 0 39.643 3.806 1.106 192.023 1.625 204.536 0.499zM832.18 133.182c10.313 9.217 20.17 18.027 30.227 27.014 0.926-0.813 2.002-1.655 2.96-2.613 41.695-41.681 83.37-83.384 125.078-125.052 5.864-5.857 8.6-12.595 6.456-20.86-3.623-13.966-20.169-19.846-31.77-11.274-1.534 1.133-2.909 2.499-4.264 3.852-41.822 41.803-83.633 83.616-125.438 125.435-1.096 1.098-2.116 2.274-3.25 3.498zM402.71 365.56c0-13.929 0-27.101 0-40.569-61.476 0-122.825 0-184.761 0-0.51 13.255-0.115 26.426-0.248 39.269 0.398 0.455 0.504 0.597 0.631 0.715 0.122 0.114 0.265 0.292 0.399 0.292 59.673 0.106 119.346 0.2 179.020 0.292 1.545 0.004 3.089 0.001 4.958 0.001z" />
<glyph unicode="&#xe905;" glyph-name="iconfont-advisoryType" d="M256 448c35.21 0 64 28.79 64 64s-28.79 64-64 64-64-28.79-64-64 28.79-64 64-64zM576 512c0 35.21-28.79 64-64 64s-64-28.79-64-64 28.79-64 64-64v64h64zM832 512c0 35.21-28.79 64-64 64s-64-28.79-64-64h128zM512 896c247.69 0 448-172.111 448-384h64c0 247.69-229.1 448-512 448s-512-200.31-512-448c0-141.43 74.87-267.5 192-349.42v-226.58l224.020 136.31c31.39-5.12 63.37-8.31 96.020-8.31v64c-37.1 0-73.61 4.49-108.15 11.5l-150.41-90.27 1.93 148.519c-115.83 69.12-191.37 184.359-191.37 314.25-0.039 211.889 200.271 384 447.961 384zM576 320h448v128h-448v-128zM576 128h448v128h-448v-128zM576-64h448v128h-448v-128z" />
<glyph unicode="&#xe906;" glyph-name="iconfont-authority" d="M359.873 493.488c-8.606 6.143-21.272 3.152-28.291-6.68v0 0l-140.43-196.726c-7.019-9.833-5.733-22.784 2.873-28.927s21.272-3.153 28.291 6.68c0.001 0.002 0.002 0.004 0.003 0.005l140.423 196.715c0.001 0.002 0.002 0.003 0.004 0.005 7.019 9.833 5.733 22.784-2.873 28.927zM521.301 443.692c32.806 29.329 100.89 78.532 188.272 78.532 3.236 0 6.515-0.069 9.749-0.203l16.19-0.675 3.342 15.855c0.367 1.745 9.002 43.355 8.873 98.233-0.177 74.901-16.043 135.952-47.161 181.458-31.583 46.186-78.007 74.623-137.984 84.519-4.451 0.734-16.734 2.443-34.607 2.443-30.47 0-76.77-4.906-124.306-28.28-55.568-27.323-98.508-72.642-127.6-134.638-1.599-3.379-37.452-81.83 17.583-196.501-16.549-23.657-61.964-88.64-106.819-153.405-32.887-47.486-59.050-85.574-77.762-113.207-11.16-16.481-19.784-29.415-25.63-38.439-10.195-15.737-13.722-21.181-12.133-29.656 0.12-0.923 0.357-3.61 0.567-5.995 1.684-19.049 5.628-63.658 20.202-96.193l4.641-10.358 11.314-0.901c0.479-0.038 11.884-0.932 27.411-0.932 33.411 0 58.802 3.943 75.47 11.721l4.782 2.231 97.675 143.874 75.661-5.13 6.072 9.789c39.322 63.394 108.355 169.909 126.198 185.86zM368.66 287.802l-74.627 5.059-103.793-152.885c-11.913-4.104-31.059-6.338-54.797-6.338-4.667 0-8.936 0.091-12.552 0.211-8.675 25.759-11.551 58.284-12.874 73.253-0.078 0.883-0.148 1.684-0.215 2.416 18.857 31.084 143.513 210.603 221.748 322.288l6.657 9.503-5.345 10.299c-27.863 53.692-32.384 97.886-31.268 125.506 1.188 29.458 8.854 46.921 9.13 47.541 57.556 122.601 160.816 140.908 217.25 140.908 15.462 0 25.627-1.479 28.374-1.932 49.224-8.123 87.087-31.087 112.542-68.255 52.329-76.411 41.197-193.304 35.083-234.921-97.366-2.008-172.009-55.868-208.193-88.219-24.841-22.206-103.096-146.002-127.121-184.435zM879.271 428.595c-46.258 46.258-107.76 71.734-173.179 71.734s-126.922-25.476-173.179-71.734-71.734-107.76-71.734-173.179 25.476-126.922 71.734-173.179 107.76-71.734 173.179-71.734c65.419 0 126.922 25.476 173.179 71.734s71.734 107.76 71.734 173.179-25.476 126.922-71.734 173.179zM706.092 48.794c-113.932 0-206.623 92.69-206.623 206.623s92.69 206.623 206.623 206.623 206.623-92.69 206.623-206.623-92.691-206.623-206.623-206.623zM614.083 779.934c-19.046 17.113-44.031 26.159-72.254 26.159-45.447 0-94.038-23.883-129.981-63.886-6.225-6.929-9.135-15.235-8.416-24.020 1.63-19.911 20.928-35.373 47.638-56.772 10.025-8.032 21.388-17.135 32.341-26.976 11.509-10.341 22.106-21.33 31.457-31.025 22.593-23.427 38.917-40.352 58.662-40.352 6.531 0 16.103 1.988 24.615 11.463 28.645 31.881 46.332 70.36 49.801 108.351 3.573 39.135-8.769 74.511-33.863 97.059zM609.815 686.357c-2.64-28.91-16.117-58.572-38.039-83.848-6.914 4.227-19.687 17.471-29.346 27.487-9.796 10.157-20.899 21.671-33.426 32.926-11.758 10.565-23.57 20.027-33.991 28.377-11.511 9.222-26.713 21.401-31.952 28.287 28.441 30.262 65.1 48.217 98.771 48.217 18.622 0 34.758-5.654 46.662-16.351 16.25-14.602 23.823-37.719 21.323-65.096zM801.575 322.846h-190.968c-37.182 0-67.431-30.249-67.431-67.43s30.249-67.43 67.431-67.43h190.968c37.181 0 67.43 30.249 67.43 67.43s-30.249 67.43-67.43 67.43zM801.575 226.276h-190.968c-16.068 0-29.141 13.072-29.141 29.14s13.073 29.14 29.141 29.14h190.968c16.068 0 29.14-13.072 29.14-29.14s-13.072-29.14-29.14-29.14zM804.21 274.561h-70.837c-10.309 0-18.666-8.571-18.666-19.145s8.357-19.145 18.666-19.145h70.837c10.309 0 18.666 8.571 18.666 19.145s-8.357 19.145-18.666 19.145z" />
<glyph unicode="&#xe907;" glyph-name="iconfont-base" d="M704 704h192c17.7 0 32 14.3 32 32s-14.3 32-32 32h-192c-17.7 0-32-14.3-32-32s14.3-32 32-32zM576 896v-256h-501c-41.4 0-75-33.6-75-75v-426c0-41.4 33.6-75 75-75h277v-64h-128c-17.7 0-32-14.3-32-32s14.3-32 32-32h320c17.7 0 32 14.3 32 32s-14.3 32-32 32h-128v64h160v-128h448v960h-448zM64 139v426c0 6.1 4.9 11 11 11h618c0.8 0 1.5-0.1 2.2-0.2 1.4-0.3 2.8-0.9 3.9-1.7 0.3-0.2 0.6-0.4 0.8-0.6 0.5-0.4 1-0.9 1.5-1.5 0.2-0.3 0.4-0.6 0.6-0.8 0.8-1.2 1.4-2.5 1.7-3.9 0.1-0.7 0.2-1.5 0.2-2.2v-426c0-0.8-0.1-1.5-0.2-2.2-0.3-1.4-0.9-2.8-1.7-3.9-0.2-0.3-0.4-0.6-0.6-0.8-0.4-0.5-0.9-1-1.5-1.5-0.3-0.2-0.6-0.4-0.8-0.6-1.2-0.8-2.5-1.4-3.9-1.7-0.7-0.1-1.5-0.2-2.2-0.2h-618c-6.1-0.2-11 4.7-11 10.8zM960 0h-320v64h53c41.4 0 75 33.6 75 75v426c0 41.4-33.6 75-75 75h-53v192h320v-832z" />
<glyph unicode="&#xe908;" glyph-name="iconfont-billCodeRule" d="M692.8 960l-692.8-692.8 331.2-331.2 692.8 692.8-331.2 331.2zM331.2 26.5l-240.7 240.7 60 60 115.4-115.4 45.3 45.3-115.4 115.4 63.6 63.6 115.4-115.4 45.3 45.3-115.4 115.4 63.6 63.6 115.4-115.4 45.3 45.3-115.4 115.4 65.1 65.1 115.3-115.5 45.3 45.3-115.4 115.4 65.1 65.1 115.4-115.4 45.3 45.3-115.5 115.3 58.6 58.6 240.7-240.7-602.3-602.3z" />
<glyph unicode="&#xe909;" glyph-name="iconfont-billTypeCategory" d="M830.8 832h-573.6c-71.2 0-129.2-57.9-129.2-129.2v-637.6c0-71.2 58-129.2 129.2-129.2h573.6c71.2 0 129.2 58 129.2 129.2v637.6c0 71.3-58 129.2-129.2 129.2zM896 65.2c0-35.9-29.2-65.2-65.2-65.2h-573.6c-35.9 0-65.2 29.2-65.2 65.2v637.6c0 35.9 29.2 65.2 65.2 65.2h573.6c35.9 0 65.2-29.2 65.2-65.2v-637.6zM800 640h-512c-17.7 0-32-14.3-32-32s14.3-32 32-32h512c17.7 0 32 14.3 32 32s-14.3 32-32 32zM800 448h-512c-17.7 0-32-14.3-32-32s14.3-32 32-32h512c17.7 0 32 14.3 32 32s-14.3 32-32 32zM800 256h-512c-17.7 0-32-14.3-32-32s14.3-32 32-32h512c17.7 0 32 14.3 32 32s-14.3 32-32 32zM777.8 896c17.7 0 32 14.3 32 32s-14.3 32-32 32h-596.8c-99.8 0-181-81.2-181-181v-699.4c0-17.7 14.3-32 32-32s32 14.3 32 32v699.4c0 64.5 52.5 117 117 117h596.8z" />
<glyph unicode="&#xe90a;" glyph-name="iconfont-bindProduct" d="M929.706 430.319h-363.274v52.189h311.085v103.354h-726.547v-103.354h311.085v-52.189h-363.274v207.731h830.925zM203.159 93.652h622.17v-52.189h-622.17v52.189zM176.553 455.902h52.189v-414.439h-52.189v414.439zM799.747 455.902h52.189v-414.439h-52.189v414.439zM592.015 41.463h-155.543v596.588h155.543v-596.588zM488.661 93.652h51.165v492.21h-51.165v-492.21zM495.215 596.667c-35.422 0-101.303 6.462-144.561 49.742-28.477 28.462-49.081 61.968-58.008 94.336-10.344 37.5-4.314 69.867 16.978 91.14 14.302 14.277 34.078 21.819 57.2 21.819 40.923 0 88.878-23.499 128.278-62.861 60.689-60.663 49.044-165.797 48.519-170.242l-2.399-20.3-20.3-2.404c-1.062-0.126-10.806-1.229-25.705-1.229zM366.823 801.848c-9.217 0-16.133-2.239-20.556-6.655-7.395-7.388-8.722-22.212-3.633-40.661 6.484-23.506 22.772-49.552 44.688-71.456 29.246-29.26 77.81-34.295 105.644-34.544-0.241 28.008-5.298 76.425-34.517 105.631-28.995 28.966-64.963 47.685-91.626 47.685zM544.837 597.118c-0.002 0-0.003 0-0.006 0-14.898 0-24.642 0.878-25.703 1.003l-20.3 2.29-2.4 20.244c-0.526 4.445-12.173 109.551 48.511 170.209 39.406 39.367 87.362 62.851 128.286 62.851 23.122 0 42.899-7.549 57.193-21.818 21.298-21.282 27.326-53.652 16.984-91.151-8.928-32.366-29.531-65.648-58.014-94.12-43.25-43.269-109.127-49.509-144.549-49.509zM673.224 801.848c-26.664 0-62.632-18.719-91.632-47.691-29.21-29.197-34.267-77.599-34.509-105.626 27.833 0.248 76.393 5.28 105.635 34.536 21.923 21.913 38.21 47.958 44.694 71.465 5.090 18.45 3.763 33.274-3.64 40.67-4.415 4.407-11.332 6.646-20.548 6.646z" />
<glyph unicode="&#xe90b;" glyph-name="iconfont-brandAptitude" d="M905.073 895.356h-787.111c-25.002 0-52.845-27.723-52.845-52.845v-788.972c0-25.146 27.842-52.844 52.845-52.844h787.111c25.002 0 52.844 27.697 52.844 52.844v788.972c0 25.121-27.841 52.845-52.844 52.845zM363.573 747.435c46.547 0 84.296-37.879 84.296-84.62 0-46.728-37.749-84.645-84.296-84.645-46.549 0-84.272 37.917-84.272 84.645 0.001 46.742 37.724 84.62 84.272 84.62zM363.573 553.43c93.096 0 168.593-75.771 168.593-169.226 0-0.26-337.162-0.26-337.162 0 0 93.455 75.473 169.226 168.569 169.226zM432.576 92.095l-161.061 160.633 53.696 53.541 108.061-107.779 261.084 212.035 49.774-60.007-311.554-258.425zM831.583 448h-256.035v32.49h256.035v-32.49zM831.583 543.679h-256.035v32.49h256.035v-32.49zM831.583 639.785h-256.035v32.49h256.035v-32.49z" />
<glyph unicode="&#xe90c;" glyph-name="iconfont-bulletin" d="M510.329 872.643c234.515 0 424.637-190.123 424.637-424.639 0-234.52-190.122-424.648-424.637-424.648-234.52 0-424.649 190.123-424.649 424.648 0 234.515 190.123 424.639 424.649 424.639v0 0zM542.214 267.075v365.864c0 0-11.635 33.613-40.512 8.2-28.871-25.426-97.824-88.783-97.824-88.783h-107.958c-7.312 0-19.155 0.828-19.155-25.884v-157.728c0-12.551 9.439-21.542 19.831-21.542h101.705l104.493-90.707c15.192-13.186 39.42-19.976 39.42 10.58v0 0zM743.612 436.235c3.4 65.462-26.702 125.632-77.444 168.545-16.597 11.118-40.983-11.695-30.901-25.537 42.755-35.934 68.12-86.411 65.277-141.404-2.6-49.977-27.962-94.485-67.294-126.673-13.694-16.431 18.841-35.027 29.662-26.597 47.172 38.501 77.626 91.837 80.7 151.665v0 0zM615.658 441.318c-1.605-31.332-17.013-59.404-41.020-80.201-11.973-14.633 14.289-34.255 28.728-23.641 30.629 26.54 50.237 62.363 52.308 102.352 2.308 44.707-17.776 85.852-51.827 115.644-16.783 12.541-40.534-11.293-30.070-22.494 27.462-23.405 43.718-56.106 41.881-91.66v0 0z" />
<glyph unicode="&#xe90d;" glyph-name="iconfont-businessCategory" d="M733.522 936.653h-443.044c-43.131 0-78.182-35.052-78.182-78.193v-820.92c0-43.131 35.052-78.193 78.182-78.193h443.044c43.141 0 78.182 35.062 78.182 78.193v820.92c0 43.141-35.041 78.193-78.182 78.193zM433.818 865.239c0 10.639 8.643 19.292 19.302 19.292h104.745c10.65 0 19.292-8.653 19.292-19.292v-0.522c0-10.639-8.643-19.282-19.292-19.282h-104.745c-10.66 0-19.302 8.643-19.302 19.282v0.522zM512-11.315c-23.316 0-42.342 19.016-42.342 42.353 0 23.316 19.016 42.353 42.342 42.353s42.353-19.026 42.353-42.353c0-23.337-19.026-42.353-42.353-42.353zM746.547 115.722c0-7.158-5.857-13.025-13.025-13.025h-443.044c-7.158 0-13.025 5.868-13.025 13.025v664.556c0 7.158 5.868 13.025 13.025 13.025h443.044c7.168 0 13.025-5.868 13.025-13.025v-664.556zM681.523 193.915h-339.046c-7.117 0-12.902-5.775-12.902-12.913v-0.246c0-7.127 5.775-12.913 12.902-12.913h339.046c7.137 0 12.913 5.775 12.913 12.913v0.246c-0.010 7.127-5.775 12.913-12.913 12.913zM681.523 272.087h-339.046c-7.117 0-12.902-5.765-12.902-12.913v-0.236c0-7.137 5.775-12.913 12.902-12.913h339.046c7.137 0 12.913 5.765 12.913 12.913v0.236c-0.010 7.148-5.775 12.913-12.913 12.913zM681.523 350.28h-339.046c-7.117 0-12.902-5.775-12.902-12.913v-0.246c0-7.127 5.775-12.913 12.902-12.913h339.046c7.137 0 12.913 5.775 12.913 12.913v0.246c-0.010 7.137-5.775 12.913-12.913 12.913zM498.975 701.44c-61.563-6.113-110.5-55.050-116.613-116.623h116.613v116.623zM512 441.477c71.977 0 130.314 58.337 130.314 130.314 0 67.574-51.425 123.105-117.268 129.649v-116.623c0-14.346-11.694-26.061-26.071-26.061h-116.613c6.523-65.833 62.065-117.279 129.638-117.279z" />
<glyph unicode="&#xe90e;" glyph-name="iconfont-businessLog" d="M251.604 557.639h246.682v-27.41h-246.682v27.41zM251.604 448.011h246.682v-27.418h-246.682v27.418zM251.604 338.36h274.094v-27.409h-274.094v27.409zM251.604 228.718h383.736v-27.403h-383.736v27.403zM717.572 614.177c9.308 0 18.457-0.676 27.411-1.958v164.7h-109.645v54.822h-54.821v-54.822h-54.821v54.822h-54.822v-54.822h-54.821v54.822h-54.823v-54.822h-54.806v54.822h-54.823v-54.822h-109.643v-712.659h603.024v168.132c-8.954-1.281-18.103-1.958-27.411-1.958s-18.457 0.676-27.411 1.958v-113.31h-493.381v603.022h54.822v-54.822h54.823v54.822h54.806v-54.822h54.823v54.822h54.821v-54.822h54.822v54.822h54.821v-54.822h54.821v54.822h54.823v-109.885c8.955 1.28 18.105 1.957 27.412 1.957zM855.653 388.511h-17.406c-2.844-10.253-6.909-19.969-12.102-28.98l16.113-16.097c10.285-10.308 10.285-27.010 0-37.303l-9.329-9.331c-10.301-10.299-27.017-10.299-37.319 0l-16.182 16.197c-9.006-5.107-18.686-9.091-28.875-11.869v-16.906c0-14.558-11.82-26.377-26.384-26.377h-13.197c-14.564 0-26.384 11.82-26.384 26.377v16.906c-10.187 2.778-19.883 6.761-28.86 11.869l-16.211-16.197c-10.299-10.299-27.002-10.299-37.303 0l-9.342 9.331c-10.287 10.293-10.287 26.995 0 37.303l16.125 16.097c-5.207 9.012-9.258 18.729-12.102 28.98h-17.404c-14.564 0-26.384 11.804-26.384 26.375v13.185c0 14.577 11.82 26.384 26.384 26.384h17.208c2.73 10.153 6.628 19.818 11.68 28.768l-15.507 15.471c-10.287 10.307-10.287 27.010 0 37.317l9.342 9.328c10.301 10.293 27.004 10.293 37.303 0l15.184-15.176c9.288 5.39 19.291 9.611 29.888 12.503v17.715c0 14.585 11.82 26.383 26.384 26.383h13.197c14.564 0 26.384-11.798 26.384-26.383v-17.715c10.583-2.892 20.6-7.113 29.888-12.503l15.167 15.176c10.301 10.293 27.017 10.293 37.319 0l9.329-9.328c10.285-10.307 10.285-27.010 0-37.317l-15.494-15.471c5.051-8.95 8.964-18.615 11.68-28.768h17.208c14.564 0 26.384-11.807 26.384-26.384v-13.185c0.002-14.571-11.818-26.375-26.382-26.375zM717.572 493.616c-40.077 0-72.539-32.483-72.539-72.545 0-40.068 32.462-72.538 72.539-72.538 40.058 0 72.55 32.47 72.55 72.538 0.001 40.062-32.491 72.545-72.55 72.545zM717.572 388.926c-18.21 0-32.983 14.746-32.983 32.976 0 18.202 14.774 32.963 32.983 32.963s32.981-14.761 32.981-32.963c0.001-18.229-14.773-32.976-32.981-32.976z" />
<glyph unicode="&#xe90f;" glyph-name="iconfont-cashGiftConfig" d="M516 608c-1.888 0-3.808 0.16-5.664 0.512l-356 64c-15.232 2.752-26.336 16-26.336 31.488v96c0 52.928 43.072 96 96 96h576c52.928 0 96-43.072 96-96v-96c0-15.424-11.040-28.672-26.208-31.456l-348-64c-1.92-0.384-3.84-0.544-5.792-0.544zM192 730.752l323.936-58.24 316.064 58.144v69.344c0 17.632-14.336 32-32 32h-576c-17.632 0-32-14.368-32-32v-69.248zM800 0h-576c-52.928 0-96 43.072-96 96v480c0 17.664 14.336 32 32 32s32-14.336 32-32v-480c0-17.664 14.368-32 32-32h576c17.664 0 32 14.336 32 32v480c0 17.664 14.304 32 32 32s32-14.336 32-32v-480c0-52.928-43.072-96-96-96zM607.808 320c17.696 0 32 14.304 32 32s-14.304 32-32 32h-51.84l76.16 73.312c12.704 12.288 13.088 32.448 0.8 45.152-12.288 12.736-32.512 12.992-45.248 0.768l-76.256-73.6-73.344 73.216c-12.512 12.48-32.8 12.48-45.28-0.064-12.48-12.512-12.448-32.608 0.032-45.088l74.048-73.696h-51.136c-17.664 0-32-14.304-32-32s14.336-32 32-32h64.256v-32h-64.256c-17.664 0-32-14.304-32-32s14.336-32 32-32h64.256v-64.384c0-17.696 14.336-32 32-32s32 14.304 32 32v64.384h63.808c17.696 0 32 14.304 32 32s-14.304 32-32 32h-63.808v32h63.808z" />
<glyph unicode="&#xe910;" glyph-name="iconfont-cms" horiz-adv-x="1053" d="M994.615 155.723h-549.432c-27.042 0-49.167-22.125-49.167-49.167v-110.822c0-27.042 22.125-49.167 49.167-49.167h549.432c27.042 0 49.167 22.125 49.167 49.167v110.822c0 27.042-22.124 49.167-49.167 49.167zM168.298 155.546h-110.645c-27.042 0-49.167-22.125-49.167-49.167v-110.645c0-27.042 22.125-49.167 49.167-49.167h110.645c27.042 0 49.167 22.128 49.167 49.167v110.645c0 27.042-22.125 49.167-49.167 49.167zM994.615 955.118h-549.432c-27.042 0-49.167-22.125-49.167-49.167v-110.822c0-27.043 22.125-49.169 49.167-49.169h549.432c27.042 0 49.167 22.127 49.167 49.169v110.822c0 27.042-22.124 49.167-49.167 49.167zM168.298 955.118h-110.645c-27.042 0-49.167-22.125-49.167-49.167v-110.645c0-27.042 22.125-49.167 49.167-49.167h110.645c27.042 0 49.167 22.125 49.167 49.167v110.645c0 27.042-22.125 49.167-49.167 49.167zM994.615 546.604h-549.432c-27.042 0-49.167-22.125-49.167-49.167v-110.82c0-27.042 22.125-49.167 49.167-49.167h549.432c27.042 0 49.167 22.125 49.167 49.167v110.82c0 27.042-22.124 49.167-49.167 49.167zM168.298 546.604h-110.645c-27.042 0-49.167-22.125-49.167-49.167v-110.644c0-27.042 22.125-49.167 49.167-49.167h110.645c27.042 0 49.167 22.125 49.167 49.167v110.644c0 27.042-22.125 49.167-49.167 49.167z" />
<glyph unicode="&#xe911;" glyph-name="iconfont-cmsArticle" d="M513.197 814.641c23.603 17.764 52.911 21.467 81.965 25.141 40.015 5.061 80.064 4.059 119.738-3.503 13.177-2.512 26.354-5.901 38.881-10.619 8.235-3.102 16.009-8.489 22.706-14.325 7.708-6.714 9.543-16.699 9.552-26.647 0.069-83.6 0.039-167.201 0.039-250.802 0-38.047 0.118-76.093-0.085-114.139-0.049-9.036-2.034-17.686-10.352-23.26-8.55-5.727-17.248-5.416-26.489-1.39-6.62 2.886-13.523 5.734-20.579 6.9-36.141 5.977-72.676 6.55-109.125 5.197-23.582-0.875-47.070-4.422-70.579-6.954-2.624-0.283-5.451-1.284-7.609-2.782-6.371-4.421-13.399-5.576-20.88-5.277-9.342 0.374-18.686 0.702-28.025 1.126-1.165 0.053-2.451 0.33-3.442 0.911-20.078 11.743-42.763 10.338-64.598 12.026-21.205 1.639-42.641 1.975-63.886 0.969-24.44-1.158-48.834-3.987-73.131-7.028-6.99-0.875-13.43-5.489-20.378-7.509-10.737-3.121-24.028 5.028-26.256 14.645-1.332 5.751-2.407 11.722-2.413 17.594-0.138 118.064-0.047 236.129-0.146 354.193-0.023 26.552 8.511 36.327 31.614 46.273 19.989 8.607 41.526 12.072 63.099 14.52 40.081 4.547 80.057 3.838 119.764-3.558 11.035-2.056 22.117-4.555 32.668-8.288 9.501-3.361 18.308-8.692 27.95-13.412zM499.606 436.836c0 3.179 0.002 5.040-0.001 6.899-0.052 45.899-0.155 91.8-0.148 137.699 0.011 67.747 0.045 135.494 0.251 203.24 0.018 5.971-1.941 10.515-6.926 13.246-6.096 3.339-12.298 7.181-18.934 8.698-17.078 3.907-34.3 7.848-51.683 9.624-41.285 4.215-82.544 3.269-123.092-6.591-10.123-2.462-19.789-7.147-29.319-11.557-5.236-2.425-7.323-7.327-7.315-13.538 0.138-113.814 0.103-227.629 0.116-341.445 0-1.625 0.136-3.25 0.166-3.911 6.017 3.406 11.797 7.632 18.242 10.156 25.135 9.844 51.702 12.785 78.347 13.63 20.715 0.657 41.521-0.386 62.245-1.472 18.845-0.987 37.418-4.255 55.349-10.41 8.188-2.812 16.285-5.934 22.703-14.269zM699.959 814.695c0-72.87 0-144.875 0-216.877-0.398-0.19-0.794-0.382-1.191-0.572-17.842 17.978-35.684 35.957-54.008 54.421-18.142-18.329-35.978-36.349-53.816-54.367-0.411 0.142-0.824 0.283-1.236 0.427 0 72.342 0 144.682 0 217.394-17.081-2.441-33.195-5.254-48.36-11.799-4.028-1.738-7.826-4.161-11.413-6.715-3.467-2.47-5.205-5.963-5.202-10.527 0.072-114.993 0.055-229.985 0.076-344.978 0-1.017 0.307-2.033 0.262-1.754 5.972 3.368 11.655 7.484 17.978 9.978 24.458 9.647 50.352 12.63 76.278 13.659 31.937 1.268 63.983 1.066 95.499-5.523 16.659-3.482 33.692-6.544 47.132-19.908 0 2.281 0.006 3.922-0.001 5.563-0.111 24.051-0.32 48.102-0.311 72.153 0.012 30.353 0.272 60.708 0.3 91.061 0.055 58.521-0.187 117.043 0.233 175.56 0.069 9.575-3.905 15.037-11.654 18.993-15.576 7.949-32.462 10.998-50.566 13.811zM356.65 246.641c6.531 3.070 12.954 6.088 19.977 9.39 7.426-12.204 14.752-24.24 22.304-36.648-5.724-2.928-11.155-5.706-18.014-9.215 41.355 0 81.217 0 121.536 0 0-6.75 0-12.926 0-19.617-15.755 0-31.53 0-47.791 0-8.871-45.926-26.579-87.161-60.518-120.983 33.58-23.463 71.649-35.046 110.438-46.368-6.115-7.436-12-14.594-18.462-22.451-12.939 5.055-26.305 10.009-39.459 15.473-23.503 9.764-46.195 21.071-66.742 36.329-1.121 0.832-3.924 0.808-5.079-0.021-32.883-23.647-70.028-38.538-107.599-52.541-1.173-0.437-3.471-0.021-4.197 0.859-4.751 5.77-9.214 11.777-14.156 18.209 39.511 12.635 78.124 26.205 112.536 50.466-32.036 34.616-52.153 74.753-60.838 120.735-16.347 0-32.364 0-48.794 0 0 6.456 0 12.656 0 19.356 41.42 0 82.965 0 125.789 0-7.243 12.817-13.974 24.724-20.931 37.027zM321.723 190.066c7.645-41.593 25.425-77.37 56.24-106.826 30.926 29.432 46.863 65.666 54.079 106.826-36.918 0-73.33 0-110.319 0zM635.491 69.234c-21.078 0-41.978 0-63.229 0-0.157-2.467-0.304-4.794-0.477-7.517-5.837 0-11.694 0-17.896 0 0 31.427 0 62.871 0 94.592 61.172 0 122.18 0 183.582 0 0-31.412 0-62.859 0-94.646-5.795 0-11.648 0-17.833 0-0.125 2.482-0.243 4.815-0.378 7.498-21.127 0-42.174 0-63.556 0 0-6.897 0-13.648 0-20.925 38.992 0 77.979 0 117.329 0 0-5.69 0-10.861 0-16.607-39.148 0-78.118 0-117.598 0 0-12.090 0-23.624 0-35.477-6.56 0-12.615 0-19.355 0 0 11.562 0 23.216 0 35.414-39.65 0-78.627 0-117.904 0 0 5.595 0 10.635 0 16.259 38.992 0 77.948 0 117.314 0 0 7.423 0 14.273 0 21.409zM719.223 140.788c-49.363 0-98.162 0-146.934 0 0-6.807 0-13.206 0-19.746 49.111 0 97.918 0 146.934 0 0 6.701 0 13.105 0 19.746zM572.258 85.251c49.237 0 98.046 0 146.738 0 0 6.876 0 13.4 0 19.833-49.115 0-97.791 0-146.738 0 0-6.663 0-13.061 0-19.833zM589.339 216.975c-21.346 0-41.182 0-61.292 0 0 5.516 0 10.57 0 16.13 36.014 0 72.093 0 109.513 0-3.797 6.004-7.004 11.068-10.453 16.522 5.983 2.776 11.821 5.485 18.148 8.422 4.352-7.052 8.796-13.885 12.823-20.957 1.671-2.935 3.6-3.801 6.881-3.786 31.050 0.128 62.1 0.076 93.15 0.076 1.832 0 3.663 0 5.784 0 0-5.546 0-10.586 0-16.223-20.898 0-41.731 0-62.566 0-0.089-0.356-0.176-0.711-0.263-1.068 4.138-2.14 8.275-4.279 13.014-6.73-4.17-6.527-8.215-12.857-12.743-19.944 24.845 0 48.781 0 73 0 0-5.545 0-10.595 0-16.066-85.431 0-170.94 0-256.77 0 0 5.1 0 10.147 0 15.793 23.022 0 46.091 0 70.448 0-4.786 6.758-8.867 12.517-13.398 18.912 4.47 2.708 8.948 5.421 14.724 8.921zM591.896 216.788c6.273-9.060 12.092-17.611 18.138-25.999 0.684-0.949 2.638-1.372 4.006-1.378 20.634-0.084 41.269-0.083 61.903-0.003 1.37 0.006 3.444 0.387 3.994 1.307 5.028 8.412 9.79 16.982 14.953 26.073-34.766 0.001-68.49 0.001-102.994 0.001z" />
<glyph unicode="&#xe912;" glyph-name="iconfont-cmsColumn" d="M377.428 950.718h-305.508c-35.273 0-63.869-28.595-63.869-63.869v-305.508c0-35.273 28.595-63.869 63.869-63.869h305.508c35.273 0 63.869 28.595 63.869 63.869v305.508c0 35.274-28.594 63.869-63.869 63.869zM954.993 950.718h-305.508c-35.273 0-63.869-28.595-63.869-63.869v-305.508c0-35.273 28.595-63.869 63.869-63.869h305.508c35.273 0 63.869 28.595 63.869 63.869v305.508c0 35.274-28.595 63.869-63.869 63.869zM377.428 373.082h-305.508c-35.273 0-63.869-28.595-63.869-63.869v-305.508c0-35.273 28.595-63.869 63.869-63.869h305.508c35.273 0 63.869 28.595 63.869 63.869v305.508c0 35.274-28.594 63.869-63.869 63.869zM954.993 373.082h-305.508c-35.273 0-63.869-28.595-63.869-63.869v-305.508c0-35.273 28.595-63.869 63.869-63.869h305.508c35.273 0 63.869 28.595 63.869 63.869v305.508c0 35.274-28.595 63.869-63.869 63.869z" />
<glyph unicode="&#xe913;" glyph-name="iconfont-cmsColumnGroup" d="M237.538 834.92h-108.567v-107.783h108.613v107.783zM237.538 614.493h-108.567v-107.781h108.613v107.781zM296.914 834.92h597.091v-69.241h-597.091v69.241zM296.914 614.477h597.091v-69.192h-597.091v69.192zM237.538 394.067h-108.567v-107.781h108.613v107.781zM296.914 394.058h597.091v-69.193h-597.091v69.193zM237.538 173.64h-108.567v-107.782h108.613v107.782zM296.914 173.64h597.091v-69.193h-597.091v69.193z" />
<glyph unicode="&#xe914;" glyph-name="iconfont-comment" d="M253.83 534.595c0-30.862 25.020-55.883 55.883-55.883s55.878 25.020 55.878 55.883c0 30.867-25.015 55.883-55.878 55.883s-55.883-25.015-55.883-55.883zM848.232 869.987h-673.277c-60.923 0-111.010-50.045-111.010-111.781v-447.117c0-61.735 50.086-111.781 111.010-111.781h361.708l156.22-158.341c17.257-17.461 45.244-17.461 62.507 0s17.263 45.776 0 63.237l-169.584 171.881c-10.24 10.358-24.251 14.57-37.559 12.64h-351.020c-24.407 0-44.192 20.020-44.192 44.713v399.386c0 24.698 19.785 47.737 44.192 47.737h627.328c24.407 0 44.192-23.038 44.192-47.737v-399.386c0-24.693-19.785-44.713-44.192-44.713h-15.291c-2.36 0.381-4.778 0.588-7.246 0.588-24.892 0-45.075-20.179-45.075-45.075 0-24.887 20.183-45.070 45.075-45.070 1.155 0 2.296 0.057 3.428 0.143h42.786c60.918 0 110.309 50.045 110.309 111.781v447.114c0.001 61.736-49.391 111.781-110.309 111.781zM455.088 534.595c0-30.862 25.015-55.883 55.878-55.883 30.867 0 55.883 25.020 55.883 55.883 0 30.867-25.015 55.883-55.883 55.883-30.862 0-55.878-25.015-55.878-55.883zM712.224 590.477c-30.862 0-55.883-25.015-55.883-55.883 0-30.862 25.020-55.883 55.883-55.883s55.883 25.020 55.883 55.883c0 30.867-25.019 55.883-55.883 55.883z" />
<glyph unicode="&#xe915;" glyph-name="iconfont-commission" d="M527.517 317.444v-8.352c0-8.567-6.95-15.508-15.517-15.508s-15.499 6.941-15.499 15.508v8.352h-161.463v-353.943h353.943v353.943h-161.464zM665.020 250.072l-176.98-176.962c-1.778-1.778-4.195-2.775-6.701-2.775-0.088 0-0.178 0-0.266 0-2.612 0.081-5.084 1.228-6.807 3.182l-101.138 113.597c-3.465 3.919-3.127 9.908 0.782 13.393 3.91 3.493 9.9 3.128 13.384-0.773l94.454-106.113 169.852 169.871c3.715 3.697 9.705 3.697 13.42 0 3.698-3.715 3.698-9.714 0-13.42zM512 928.603c-214.478 0-388.346-173.869-388.346-388.346 0-143.22 77.533-268.327 192.912-335.652v135.81h179.935v90.601h-171.897c-8.567 0-15.498 6.941-15.498 15.508s6.931 15.507 15.498 15.507h171.896v67.129l-1.257 1.82h-170.639c-8.567 0-15.498 6.941-15.498 15.508 0 8.566 6.931 15.507 15.498 15.507h149.217l-138.553 200.605c-4.87 7.048-3.11 16.708 3.948 21.577 7.055 4.87 16.708 3.092 21.577-3.946l150.731-218.235h0.953l150.732 218.236c4.87 7.049 14.523 8.817 21.577 3.946 7.058-4.87 8.818-14.522 3.948-21.577l-138.554-200.605h149.234c8.567 0 15.498-6.941 15.498-15.507s-6.931-15.508-15.498-15.508h-170.656l-1.24-1.796v-67.152h171.896c8.567 0 15.498-6.94 15.498-15.507s-6.931-15.508-15.498-15.508h-171.897v-90.601h179.935v-135.8c115.369 67.328 192.894 192.428 192.894 335.641 0 214.476-173.868 388.345-388.346 388.345z" />
<glyph unicode="&#xe916;" glyph-name="iconfont-commissionRecord" d="M835.2 175.328h-82.048v31.424l82.048 0.064c3.296 0 6.016 2.688 6.016 6.016s-2.72 6.048-6.016 6.048h-82.048v17.504l75.328 74.624-0.064 0.064c2.528 2.176 2.752 6.016 0.576 8.48-2.24 2.496-6.048 2.72-8.544 0.544l-73.152-72.704-74.976 74.272c-2.464 2.208-6.272 2.016-8.512-0.512-2.208-2.528-2.016-6.304 0.512-8.544l-0.032-0.032 76.768-75.968v-17.76l-82.016-0.032c-3.328 0-6.080-2.72-6.080-6.016s2.72-6.016 6.080-6.016v-0.032h82.016v-31.424l-82.016-0.032c-3.328 0-6.080-2.72-6.080-6.016 0-3.328 2.72-6.016 6.080-6.016v-0.064h82.016v-62.368c0-3.328 2.752-6.016 6.048-6.016 3.328 0 6.048 2.688 6.048 6.016v0 62.368l82.048 0.064c3.296 0 6.016 2.688 6.016 6.048-0.032 3.328-2.72 6.016-6.016 6.016v0zM747.072 86.816c-7.744 0-14.048 6.272-14.048 14.016v54.368h-82.016v2.56c-3.648 2.528-6.080 6.752-6.080 11.488 0 7.744 6.304 14.016 14.080 14.016l74.016 0.032v15.424h-74.016c-7.776 0.064-14.080 6.368-14.080 14.080 0 7.744 6.304 14.016 14.080 14.016l74.016 0.032v6.4l-80.096 79.296 1.664 1.664c-0.864 4.224 0.192 8.768 3.2 12.224 4.928 5.632 14.24 6.112 19.872 1.184l69.632-68.96 67.488 67.104c6.368 5.568 15.2 4.608 20.16-0.896 2.496-2.816 3.712-6.432 3.488-10.208-0.032-0.672-0.16-1.312-0.288-1.984l1.632-1.6-5.696-5.76-72.928-72.288v-6.144h74.048c7.712 0 14.016-6.272 14.016-14.016 0-4.768-2.368-8.96-6.016-11.488v-2.528l-82.048-0.064v-15.424h74.048c7.712 0 14.016-6.272 14.016-14.016 0-4.768-2.368-8.992-6.016-11.52v-2.528l-82.048-0.064v-54.368c-0.096-7.808-6.4-14.048-14.080-14.048zM745.504-5.664c-121.376 0-220.128 98.752-220.128 220.16 0 121.376 98.752 220.128 220.128 220.128 121.408 0 220.16-98.752 220.16-220.128 0-121.408-98.752-220.16-220.16-220.16zM745.504 402.624c-103.712 0-188.128-84.416-188.128-188.128 0-103.744 84.416-188.16 188.128-188.16 103.744 0 188.16 84.416 188.16 188.16 0 103.712-84.416 188.128-188.16 188.128zM128.032 745.344c0 8.8 7.2 16 16 16h492.896c8.8 0 16-7.2 16-16v-266.688c0-8.8 7.040-14.432 15.616-12.544l29.056 6.4c8.608 1.92 15.616 10.656 15.616 19.456v316.16c0 8.8-7.2 16-16 16h-111.104c-8.8 0-16 7.2-16 16v39.552c0 8.8-7.2 16-16 16h-325.632c-8.8 0-16-7.2-16-16v-39.52c0-8.8-7.2-16-16-16h-111.104c-8.8 0-16-7.2-16-16v-790.656c0-8.8 7.2-16 16-16h489.312c8.8 0 10.976 5.152 4.8 11.424l-36.288 36.96c-6.144 6.272-18.368 11.424-27.2 11.424h-371.968c-8.8 0-16 7.2-16 16v668.032zM192 320c0-17.6 14.4-32 32-32h246.656c17.6 0 37.664 13.248 44.576 29.44l2.208 5.12c6.912 16.192-1.856 29.44-19.424 29.44h-274.016c-17.6 0-32-14.4-32-32v0zM224 672c-17.6 0-32-14.4-32-32v0c0-17.6 14.4-32 32-32h320c17.6 0 32 14.4 32 32v0c0 17.6-14.4 32-32 32h-320zM192 480c0-17.6 14.4-32 32-32h320c17.6 0 32 14.4 32 32v0c0 17.6-14.4 32-32 32h-320c-17.6 0-32-14.4-32-32v0z" />
<glyph unicode="&#xe917;" glyph-name="iconfont-config" d="M375.607 125.476h-135.137v-76.275h211.265l-73.205 73.201zM351.786 305.183h-242.085v484.263h740.776v-180.131l52.34 37.38 56.51-56.507v303.719h-958.477v-704.227h350.936zM1023.149 246.307v112.841l-86.169 14.348c-3.504 10.642-7.777 20.936-12.731 30.825l50.771 71.045-79.781 79.778-70.959-50.677c-9.925 5.029-20.291 9.32-31.008 12.842l-14.348 86.016h-112.849l-14.311-85.979c-10.718-3.522-21.046-7.852-30.973-12.842l-70.957 50.677-79.764-79.761 50.752-71.062c-4.953-9.888-9.231-20.182-12.731-30.824l-86.206-14.424v-112.841l86.388-14.385c3.506-10.569 7.743-20.753 12.716-30.55l-50.918-71.339 79.764-79.759 71.45 51.026c9.726-4.9 19.909-9.139 30.405-12.588l14.423-86.585h112.848l14.438 86.585c10.477 3.449 20.625 7.651 30.388 12.588l71.45-51.045 79.781 79.777-50.939 71.319c4.977 9.817 9.214 20.001 12.718 30.55l86.351 14.442zM722.517 212.905c-49.614 0-89.805 40.189-89.805 89.803 0 49.617 40.19 89.804 89.805 89.804s89.807-40.186 89.807-89.804c0-49.614-40.191-89.803-89.807-89.803z" />
<glyph unicode="&#xe918;" glyph-name="iconfont-coupon" horiz-adv-x="1026" d="M291.969 535.872c1.984-12.736 7.36-23.616 16.128-32.512 8.064-8.128 17.92-13.248 29.696-15.36 11.776-2.048 24.704-0.256 38.784 5.44l-78.72 79.808c-5.888-12.16-7.872-24.576-5.888-37.376zM530.625 463.936c-13.376 1.344-28.864-2.88-46.464-12.672l88.704-89.92c9.28 13.696 13.248 28.416 11.968 44.16s-7.616 29.376-19.008 40.896c-10.112 10.304-21.888 16.128-35.2 17.536zM909.697 472.192l-470.464 429.12c-29.696 30.080-428.608 15.744-428.608 15.744s-24.576-463.936 1.024-467.712l466.816-447.488c30.272-30.72 79.36-30.72 109.632 0l294.208 331.456c41.152 47.872 79.488 104.512 27.392 138.88zM92.609 705.6c-31.616 32.064-31.616 84.032 0 116.032 31.616 32.064 82.88 32.064 114.432 0 31.616-32.064 31.616-84.032 0-116.032-31.552-32.064-82.816-32.064-114.432 0zM632.769 233.728l-41.408 41.984c-29.44-23.36-60.544-35.072-93.248-35.072-32.768 0-66.368 12.864-100.8 38.528l52.992 66.688c14.528-9.856 29.568-15.872 45.056-17.984 15.488-2.176 29.248-1.088 41.408 3.2l-95.296 96.64c-38.272-21.504-72.96-30.592-104-27.2-31.104 3.392-58.944 17.536-83.52 42.432-24.896 25.216-37.888 54.336-39.104 87.424-1.28 33.024 9.92 64.064 33.408 93.184l-22.528 22.784 32.96 33.472 22.528-22.848c27.008 21.504 54.4 32.64 82.24 33.344s55.104-8.512 81.792-27.584l-50.048-65.92c-21.376 14.592-42.624 17.664-63.68 9.216l88.96-90.176c46.272 26.88 83.84 39.040 112.704 36.544 28.864-2.56 55.616-16.256 80.192-41.152 27.456-27.84 42.304-59.712 44.48-95.616s-9.344-71.040-34.688-105.28l42.56-43.136-32.96-33.472zM979.969 516.416l-400.192 382.4c-27.264 22.72-87.040 19.456-87.040 19.456l440.704-418.624c75.072-47.872 23.488-131.904 23.488-131.904s-342.080-379.776-335.616-383.296c29.376-16 40.128-10.24 64.896 14.912l295.424 331.456c60.544 87.168 52.8 134.016-1.664 185.6z" />
<glyph unicode="&#xe919;" glyph-name="iconfont-couponPlan" d="M64.044 252.569v143.486c63.894 14.599 111.789 71.893 111.789 140.186s-47.895 125.588-111.789 140.186v157.085c0 34.497 27.997 62.494 62.494 62.494h706.931c34.497 0 62.494-27.997 62.494-62.494v-157.085c-35.197-7.999-66.494-29.097-87.191-59.794l52.995-35.797c14.899 21.998 39.596 35.197 66.194 35.197h31.997v217.479c0 69.693-56.794 126.488-126.488 126.488h-706.931c-69.693 0-126.488-56.794-126.488-126.488v-217.479h31.997c43.996 0 79.792-35.797 79.792-79.792s-35.797-79.792-79.792-79.792h-31.997v-203.88c0-69.693 56.794-126.488 126.488-126.488h292.471v63.994h-292.471c-34.497 0-62.494 27.997-62.494 62.494zM576.494 448.050c17.698 0 31.997 14.299 31.997 31.997s-14.299 31.997-31.997 31.997h-128.487v63.994h138.786c17.698 0 31.997 14.299 31.997 31.997s-14.299 31.997-31.997 31.997h-123.488l134.687 134.687c12.499 12.499 12.499 32.797 0 45.296s-32.797 12.499-45.296 0l-133.587-133.687-133.687 133.687c-12.499 12.499-32.797 12.499-45.296 0s-12.499-32.797 0-45.296l134.787-134.687h-123.588c-17.698 0-31.997-14.299-31.997-31.997s14.299-31.997 31.997-31.997h132.687v-63.994h-136.687c-17.698 0-31.997-14.299-31.997-31.997s14.299-31.997 31.997-31.997h136.687v-94.391c0-17.698 14.299-31.997 31.997-31.997s31.997 14.299 31.997 31.997v94.391h128.487zM1007.352 263.068h-49.995c-4.6 16.498-11.099 32.197-19.298 46.795l35.297 35.297c6.499 6.499 6.499 16.998 0 23.498l-56.994 56.994c-3.2 3.2-7.499 4.8-11.699 4.8-4.3 0-8.499-1.6-11.699-4.8l-35.297-35.297c-14.599 8.199-30.297 14.699-46.795 19.298v49.995c0 9.099-7.499 16.598-16.598 16.598h-80.592c-9.099 0-16.598-7.499-16.598-16.598v-49.995c-16.498-4.6-32.197-11.099-46.795-19.298l-35.297 35.197c-3.2 3.2-7.499 4.8-11.699 4.8s-8.499-1.6-11.699-4.8l-56.994-56.994c-6.399-6.499-6.399-16.998 0-23.498l35.297-35.297c-8.199-14.599-14.699-30.297-19.298-46.795h-49.995c-9.099 0-16.598-7.499-16.598-16.598v-80.592c0-9.099 7.499-16.598 16.598-16.598h49.995c4.6-16.498 11.099-32.197 19.298-46.795l-35.297-35.297c-6.399-6.499-6.399-16.998 0-23.498l56.994-56.994c3.2-3.2 7.499-4.8 11.699-4.8s8.499 1.6 11.699 4.8l35.297 35.297c14.599-8.199 30.297-14.699 46.795-19.298v-49.995c0-9.099 7.499-16.598 16.598-16.598h80.592c9.099 0 16.598 7.499 16.598 16.598v49.995c16.498 4.6 32.197 11.099 46.795 19.298l35.297-35.297c3.2-3.2 7.499-4.8 11.699-4.8 4.3 0 8.499 1.6 11.699 4.8l56.994 56.994c6.499 6.499 6.499 16.998 0 23.498l-35.297 35.297c8.199 14.599 14.699 30.297 19.298 46.795h49.995c9.099 0 16.598 7.499 16.598 16.598v80.592c0 9.199-7.499 16.698-16.598 16.698zM895.763 166.477c-3.2-11.499-7.699-22.498-13.399-32.597l-20.298-35.896-35.896-20.298c-10.099-5.699-20.998-10.199-32.597-13.399l-39.696-11.099-39.696 11.099c-11.499 3.2-22.498 7.699-32.597 13.399l-35.896 20.298-20.298 35.896c-5.699 10.099-10.199 20.998-13.399 32.597l-10.999 39.696 11.099 39.696c3.2 11.499 7.699 22.498 13.399 32.597l20.298 35.896 35.896 20.298c10.099 5.699 20.998 10.199 32.597 13.399l39.696 11.099 39.696-11.099c11.499-3.2 22.498-7.699 32.597-13.399l35.896-20.298 20.298-35.896c5.699-10.099 10.199-20.998 13.399-32.597l11.099-39.696-11.199-39.696zM753.876 307.364c-55.895 0-101.29-45.296-101.29-101.29 0-55.895 45.296-101.29 101.29-101.29 55.895 0 101.29 45.296 101.29 101.29s-45.296 101.29-101.29 101.29zM753.876 168.877c-20.598 0-37.296 16.698-37.296 37.296s16.698 37.296 37.296 37.296 37.296-16.698 37.296-37.296-16.698-37.296-37.296-37.296z" />
<glyph unicode="&#xe91a;" glyph-name="iconfont-couponValidatePeriod" d="M921.792 0.838h-820.454c-20.595 0-37.293 16.699-37.293 37.293v820.456c0 20.595 16.698 37.293 37.293 37.293h820.454c20.596 0 37.292-16.698 37.292-37.293v-820.455c0-20.594-16.696-37.294-37.292-37.294zM809.914 376.414c-32.113 8.312-55.942 37.23-55.942 71.947s23.829 63.634 55.942 71.947v133.167c0 20.595-16.699 37.293-37.295 37.293h-522.106c-20.596 0-37.294-16.698-37.294-37.293v-133.168c32.112-8.312 55.941-37.23 55.941-71.947s-23.828-63.634-55.941-71.947v-133.168c0-20.595 16.698-37.293 37.294-37.293h522.106c20.596 0 37.295 16.698 37.295 37.293v133.169zM698.032 355.126h18.647v-37.292h-18.647v37.292zM698.032 411.066h18.647v-37.293h-18.647v37.293zM698.032 467.007h18.647v-37.293h-18.647v37.293zM698.032 522.947h18.647v-37.293h-18.647v37.293zM698.032 578.886h18.647v-37.292h-18.647v37.292zM399.684 411.066h223.761v-37.293h-223.761v37.293zM399.684 522.947h223.761v-37.293h-223.761v37.293zM306.451 355.126h18.647v-37.292h-18.647v37.292zM306.451 411.066h18.647v-37.293h-18.647v37.293zM306.451 467.007h18.647v-37.293h-18.647v37.293zM306.451 522.947h18.647v-37.293h-18.647v37.293zM306.451 578.886h18.647v-37.292h-18.647v37.292z" />
<glyph unicode="&#xe91b;" glyph-name="iconfont-couponValue" d="M1024 576v212c0 59.7-48.4 108-108 108h-808c-59.7 0-108-48.4-108-108v-212c70.6 0 127.8-57.2 127.8-127.8s-57.2-127.7-127.8-127.7v-212.4c0-59.7 48.4-108 108-108h808c59.7 0 108 48.4 108 108v212.4c-70.6 0-127.8 57.2-127.8 127.8s57.2 127.7 127.8 127.7zM734.7 384c17.7 0 32-14.3 32-32s-14.3-32-32-32h-191.4v-191.3c0-17.7-14.3-32-32-32s-32 14.3-32 32v191.3h-191.3c-17.7 0-32 14.3-32 32s14.3 32 32 32h191.3v64h-191.3c-17.7 0-32 14.3-32 32s14.3 32 32 32h161.3l-168.7 168.6c-12.5 12.5-12.5 32.8 0 45.3s32.8 12.5 45.3 0l185.4-185.4 185.5 185.4c12.5 12.5 32.8 12.5 45.3 0s12.5-32.8 0-45.3l-168.7-168.6h161.3c17.7 0 32-14.3 32-32s-14.3-32-32-32h-191.4v-64h191.4z" />
<glyph unicode="&#xe91c;" glyph-name="iconfont-crowdFunding" d="M530.834 349.439c-27.58 34.876-57.715 69.052-90.423 102.53l-26.458-20.431c8.818 38.956 13.412 81.215 13.779 126.785h-45.752c2.205-138.544-42.998-237.218-135.606-295.981 13.598-12.493 24.99-24.439 34.179-35.868 64.311 43.404 108.042 108.412 131.195 195.142 29.399-32.71 56.961-66.664 82.686-101.942l36.401 29.765zM524.733 711.054c66.149-80.15 147.547-138.583 244.239-175.296 9.922 17.971 19.847 33.072 29.767 45.201-102.534 30.464-184.705 85.406-246.445 164.784l9.922 13.23h-56.207c-57.329-79.379-142.405-143.837-255.225-193.45 11.023-14.003 20.211-28.334 27.56-42.996 108.047 52.149 190.183 114.989 246.389 188.525zM638.288 517.53c0.736 15.436 1.287 31.606 1.693 48.508h-44.101c1.101-85.622-9.775-150.671-32.559-195.137-21.682-45.202-61.722-84.307-120.154-117.378 13.965-12.863 24.991-24.437 33.076-34.767 77.89 40.794 127.684 108.783 149.403 203.961 26.058-90.036 74.2-155.229 144.427-195.655 11.023 15.435 22.051 29.4 33.076 41.896-81.585 34.874-136.562 117.746-164.861 248.573zM512 956.025c-280.583 0-508.024-227.442-508.024-508.025 0-280.581 227.442-508.025 508.025-508.025 280.581 0 508.023 227.444 508.023 508.025 0 280.583-227.442 508.025-508.024 508.025zM512 15.241c-239 0-432.762 193.742-432.762 432.759s193.763 432.762 432.762 432.762 432.76-193.744 432.76-432.762c0-239.018-193.76-432.759-432.76-432.759z" />
<glyph unicode="&#xe91d;" glyph-name="iconfont-currencyType" d="M512.667 960c-282.278 0-511.134-228.998-511.134-511.475s228.856-511.446 511.134-511.446c282.278 0 511.134 228.969 511.134 511.446 0 282.448-228.856 511.475-511.134 511.475zM511.56-8.334c-251.151 0-454.758 203.749-454.758 455.042 0 251.349 203.607 455.070 454.758 455.070 251.179 0 454.786-203.749 454.786-455.070 0.028-251.293-203.579-455.042-454.786-455.042zM788.47 444.549c-3.607 11.843-10.991 23.573-22.096 35.217-11.105 11.616-27.293 22.21-48.623 31.781-21.301 9.571-49.872 15.961-85.686 19.142-25.845 2.3-67.197 2.3-92.587 0v33.513c34.905 2.727 86.822 6.049 124.198 9.912 37.404 3.891 76.058 9.003 115.962 15.393-2.272 4.118-4.317 8.662-6.135 13.661-1.789 4.118-3.749 8.691-5.765 13.661-2.045 5.027-4.203 10.253-6.504 15.763-4.97 12.298-10.878 26.64-17.665 43.084-42.147-12.326-83.755-22.806-124.794-31.44-41.040-8.691-82.533-15.734-124.453-21.216-41.948-5.453-84.465-9.344-127.521-11.616-43.084-2.272-91.338 4.999-137.575 4.999l15.848-62.426c24.936 0 55.098 2.528 90.457 2.755s75.036 1.477 119 3.777v-50.98c-26.754-5.907-51.008-12.44-72.792-19.483-21.755-7.072-56.262-13.121-69.867-18.148v31.27h-84.465v-227.833h84.522v143.056c18.574 7.753 55.467 15.166 76.995 22.21 21.528 7.072 43.425 13.803 65.635 20.193v-269.214h84.919v281.454c9.969 1.818 35.104 3.181 43.936 4.118 8.861 0.909 17.58 1.818 26.186 2.755 24.056 1.363 42.516-1.363 55.439-8.208s21.67-14.144 26.186-21.897c2.272-3.664 3.749-8.322 4.402-14.030 0.682-5.68 1.022-10.338 1.022-14.002 0-2.755 0.454 2.499 1.363-10.707 0.909-13.235 0.227-32.832-2.016-58.819-0.909-9.571-2.869-17.438-5.794-23.573-2.954-6.163-6.561-10.736-10.878-13.689s-8.946-4.885-13.945-5.794c-4.97-0.909-10.168-0.909-15.649 0-12.241 1.818-26.299 6.816-42.147 15.024l-4.090-41.721c7.271-4.118 15.876-8.208 25.845-12.326 8.606-3.635 18.915-7.299 30.957-10.934 11.985-3.664 25.476-6.617 40.443-8.89 17.211-2.727 31.61-2.045 43.198 2.045s20.846 10.366 27.89 18.801c7.015 8.435 12.354 18.574 15.99 30.446 3.635 11.843 6.135 24.169 7.498 36.921s1.789 25.447 1.363 37.972c-0.483 12.525-0.909 23.8-1.363 33.826-0.937 7.753-3.209 22.323-6.845 34.195z" />
<glyph unicode="&#xe91e;" glyph-name="iconfont-dealOrder" d="M472.886 482.45h-203.465c-3.713 0-6.698-4.869-6.698-10.873 0-6.020 2.985-10.873 6.698-10.873h203.466c3.683 0 6.687 4.853 6.687 10.873-0.001 6.004-3.005 10.873-6.688 10.873zM472.886 572.484h-203.465c-3.713 0-6.698-4.885-6.698-10.889 0-6.020 2.985-10.889 6.698-10.889h203.466c3.683 0 6.687 4.868 6.687 10.889-0.001 6.004-3.005 10.889-6.688 10.889zM472.886 662.472h-203.465c-3.713 0-6.698-4.869-6.698-10.874 0-6.020 2.985-10.888 6.698-10.888h203.466c3.683 0 6.687 4.868 6.687 10.888-0.001 6.005-3.005 10.874-6.688 10.874zM273.611 728.644h151.291c6.020 0 10.889 4.868 10.889 10.873 0 6.020-4.868 10.873-10.889 10.873h-151.291c-6.035 0-10.889-4.853-10.889-10.873 0.001-6.005 4.854-10.873 10.889-10.873zM719.146 778.464l-105.309 103.769c-5.087 5.009-11.947 7.824-19.101 7.824h-416.774c-15.026 0-27.206-12.164-27.206-27.19v-726.337c0-15.043 12.179-27.208 27.206-27.208h259.354c-10.982 16.807-19.942 35.054-26.506 54.412h-205.658v671.91h361.271v-88.665c0-9.006 7.312-16.333 16.334-16.333h90.081v-249.644c18.915-2.579 37.135-7.338 54.396-14.027v292.090c0.001 7.295-2.907 14.265-8.087 19.398zM669.961 90.671l-96.564 70.149c-3.188 2.316-7.418 2.645-10.923 0.859-3.518-1.788-5.72-5.397-5.736-9.353l0.016-39.085c-38.418 22.456-65.722 61.485-72.239 108.155-1.856 13.4-14.215 22.746-27.614 20.873-13.398-1.858-22.744-14.23-20.871-27.629 6.163-44.264 26.369-83.397 55.988-113.018 18.304-18.304 40.302-32.828 64.728-42.815l-0.008-46.762c0.008-2.836 1.148-5.482 3.083-7.417 0.775-0.775 1.661-1.436 2.645-1.941 3.526-1.782 7.748-1.458 10.937 0.859l96.558 70.14c2.724 1.977 4.335 5.138 4.335 8.501-0.006 3.357-1.612 6.509-4.336 8.485zM827.969 272.184l40.154 23.997c3.398 2.020 5.355 5.778 5.096 9.711-0.261 3.935-2.717 7.389-6.341 8.944l-109.73 46.947c-3.098 1.322-6.624 1.090-9.51-0.642-2.878-1.724-4.771-4.713-5.066-8.065l-10.711-118.873c-0.295-3.138 0.86-6.179 3.034-8.353 0.541-0.542 1.161-1.049 1.823-1.47 3.349-2.099 7.586-2.14 10.972-0.12l33.49 19.991c0.36-43.946-18.662-86.98-54.531-116.417-10.444-8.571-11.971-24.004-3.379-34.454 0.522-0.633 1.063-1.232 1.626-1.795 8.796-8.797 23.012-9.655 32.837-1.59 55.136 45.273 80.322 114.667 70.238 182.189zM597.359 343.697c0.147 3.947-1.916 7.655-5.349 9.583l-34.068 19.149c38.296 22.42 85.552 27.141 129.323 10.112 12.604-4.905 26.798 1.323 31.703 13.926 4.898 12.597-1.331 26.804-13.934 31.697-67.197 26.171-140.569 13.715-194.565-29.064l-40.775 22.9c-3.434 1.941-7.671 1.787-10.964-0.408-3.28-2.182-5.059-6.031-4.595-9.943l13.842-118.57c0.281-2.365 1.351-4.532 3.005-6.186 0.668-0.668 1.442-1.245 2.28-1.73 2.928-1.634 6.473-1.788 9.523-0.388l108.457 49.824c3.588 1.645 5.954 5.165 6.115 9.099z" />
<glyph unicode="&#xe91f;" glyph-name="iconfont-dealRecord" d="M379.599 698.212h453.317v-45.33h-453.317v45.33zM379.599 572.455h453.317v-45.34h-453.317v45.34zM379.599 446.676h453.317v-45.34h-453.317v45.34zM414.707 824.001h191.55v-45.34h-191.55v45.34zM188.059 698.212h146.2v-45.33h-146.2v45.33zM188.059 572.455h146.2v-45.34h-146.2v45.34zM188.059 446.676h146.2v-45.34h-146.2v45.34zM968.904 341.33v573.33c0 0 0 45.34-45.33 45.34h-826.175c-45.34 0-45.34-45.34-45.34-45.34v-933.32c0-45.34 45.34-45.34 45.34-45.34h463.558l-45.36 45.34h-418.198v933.32h826.185v-527.98l45.33-55.571v10.221zM764.251 344.866l-40.608 0.419v-81.593c0-4.477 5.54-16.619 20.973-16.619 12.725 0 19.859 12.142 19.859 16.619l-0.123 36.274c122.518 0 158.567-76.687 158.567-158.281s-58.586-159.037-162.073-159.037c-81.675 0-156.758 77.055-156.758 158.649 0 40.792 10.436 79.345 46.863 113.339 3.168 3.199 12.347 23.569 1.891 32.196-9.526 9.965-26.748 3.189-29.947 0-21.781-15.301-62.603-63.942-62.603-145.76 0-112.358 81.665-203.774 203.958-203.774 122.763 0 204.438 81.583 203.999 203.774 0.439 122.62-91.497 203.794-203.999 203.794v0zM798.614 96.539c21.014 16.619 21.515 45.81 7.39 63.666-13.706 17.294-133.914 98.969-133.914 98.969s47.282-135.601 62.828-155.235c15.74-19.849 42.447-24.224 63.697-7.4v0z" />
<glyph unicode="&#xe920;" glyph-name="iconfont-deliverGoods" d="M565.235 739.835c-9.795 7.463-21.71 12.815-21.71 12.815h-444.479c0 0-7.149-3.602-17.315-12.020-9.66-7.998-13.979-19.857-13.979-19.857v-348.849h507.863v347.576c0 0.001-3.706 15.251-10.378 20.335zM393.33 581.291c0 0-97.083-132.878-107.388-145.896-18.999-24.803-17.762-22.156-8.678 7.593 1.987 8.036 26.715 94.371 26.715 94.371s-41.36-0.542-49.495 0c-6.658 0.444-8.376 3.58-5.966 7.593 1.554 2.197 112.466 150.777 112.466 150.777 10.45 13.593 9.168 11.884 5.67-1.479-0.365-1.277-23.393-101.57-23.393-101.57s40.305 0.542 50.067 0c6.508-3.254 0-11.389 0-11.389zM912.389 590.298c-45.751 53.376-83.029 67.143-83.029 67.143h-221.975v-448.821h34.281c-1.64 8.646-2.509 17.565-2.509 26.688 0 78.609 63.725 142.335 142.335 142.335s142.335-63.725 142.335-142.335c0-9.123-0.869-18.042-2.509-26.688h34.281v283.4c0 0-11.093 60.808-43.209 98.278zM912.389 497.95h-210.961v134.71h127.932c0 0 39.184-37.702 57.294-64.389 27.807-40.979 25.735-70.321 25.735-70.321zM377.785 246.322c0-10.374-1.284-20.448-3.69-30.077h201.519v123.696h-240.678c26.242-22.683 42.849-56.211 42.849-93.619zM173.242 339.941h-105.491v-123.696h66.333c-2.406 9.629-3.69 19.703-3.69 30.077-0.001 37.408 16.606 70.937 42.848 93.619zM253.997 340.787c-54.328 0-98.37-44.042-98.37-98.37s44.042-98.37 98.37-98.37c54.328 0 98.37 44.042 98.37 98.37s-44.042 98.37-98.37 98.37zM253.997 174.744c-37.315 0-67.671 30.357-67.671 67.671s30.357 67.671 67.671 67.671 67.671-30.357 67.671-67.671c0-37.314-30.357-67.671-67.671-67.671zM781.492 342.058c-54.328 0-98.37-44.042-98.37-98.37s44.042-98.37 98.37-98.37 98.37 44.042 98.37 98.37c0 54.328-44.042 98.37-98.37 98.37zM781.492 176.015c-37.314 0-67.671 30.357-67.671 67.671s30.357 67.671 67.671 67.671 67.671-30.357 67.671-67.671c0-37.314-30.357-67.671-67.671-67.671z" />
<glyph unicode="&#xe921;" glyph-name="iconfont-deliveryAddress" d="M703.963-63.9h-703.863v703.963h255.95v255.95h191.963v63.988h63.988v-64.087h192.062v-383.925h255.85v-575.988l-255.95 0.1zM256.050 575.975h-191.963v-575.788h63.988v127.975h63.988v-127.875h64.087l-0.1 575.688zM639.975 512.087v319.938h-319.938v-831.738h95.881v127.875h127.975v-127.875h95.981v511.8h0.1zM895.925 448.1h-191.963v-447.913h63.988v127.975h63.988v-127.875h63.988v447.813zM767.95 256.037h63.988v-63.888h-63.988v63.888zM767.95 384.012h63.988v-63.988h-63.988v63.988zM415.919 256.037h127.975v-63.888h-127.975v63.888zM415.919 384.012h127.975v-63.988h-127.975v63.988zM415.919 512.087h127.975v-63.988h-127.975v63.988zM415.919 640.062h127.975v-63.988h-127.975v63.988zM415.919 768.037h127.975v-63.988h-127.975v63.988zM127.975 256.037h63.988v-63.888h-63.988v63.888zM127.975 384.012h63.988v-63.988h-63.988v63.988zM127.975 512.087h63.988v-63.988h-63.988v63.988z" />
<glyph unicode="&#xe922;" glyph-name="iconfont-deliveryByOrderBatch" d="M233.3 864.206c86.86 0 157.274-70.414 157.274-157.275 0-86.859-70.414-157.274-157.274-157.274s-157.274 70.414-157.274 157.274c0 86.86 70.414 157.275 157.274 157.275v0zM311.712 721.829v60.233l-100.97-90.031-55.857 49.979v-60.234l55.857-49.979 100.97 90.032zM937.807 333.86c-5.749-0.315-12.448-0.479-20.112-0.479h-176.181c-4.47 0-8.938 2.236-13.405 6.704-4.468 4.474-6.704 8.301-6.704 11.492v0.957c-0.636 31.281-0.96 59.684-0.96 85.227v87.127c0 7.025 2.877 13.569 8.621 19.631 5.745 6.064 12.764 9.092 21.063 9.092 0.641 0 5.428 0.324 14.365 0.96 8.937 0.641 19.949 0.16 33.038-1.436 13.085-1.59 26.967-5.104 41.653-10.533 14.678-5.424 28.403-14.204 41.172-26.332 19.788-20.427 33.831-45.165 42.128-74.209 8.301-29.043 15.965-59.204 22.979-90.483 0-1.276 0.165-2.234 0.48-2.873 0.321-0.635 0.476-1.597 0.476-2.871 0.004-7.666-2.868-11.655-8.612-11.975v0zM1012.972 322.368c-4.788 36.068-13.245 72.935-25.373 110.598-12.134 37.661-30.325 73.094-54.58 106.279-13.404 18.516-30.004 34.475-49.799 47.876-19.783 13.411-40.853 24.262-63.193 32.563-22.343 8.3-45.005 14.198-67.986 17.712-22.979 3.508-45.005 4.307-66.068 2.39-7.020-0.635-12.929-5.584-17.716-14.837-4.788-9.255-7.18-17.397-7.18-24.416v-461.531c0-11.493 4.148-21.386 12.445-29.684 8.301-8.297 18.191-12.446 29.684-12.446h17.236c0 15.957 3.033 31.123 9.097 45.482 6.069 14.365 14.365 26.966 24.897 37.819 10.537 10.853 22.82 19.479 36.869 25.857 14.039 6.384 29.36 9.577 45.955 9.577 16.602 0 32.397-2.237 47.402-6.705 14.999-4.467 28.089-11.488 39.255-21.063 11.174-9.577 20.108-22.022 26.813-37.343 6.701-15.322 10.052-33.838 10.052-55.537h39.261c3.827 0 6.864 1.915 9.101 5.742 2.226 3.834 4.148 8.462 5.739 13.891 1.601 5.424 2.717 10.852 3.351 16.274 0.641 5.428 0.96 10.059 0.96 13.887 0 19.788 0.16 45.326 0.476 76.607 0.325 31.271-1.91 64.943-6.7 101.008v0zM842.052 155.283c16.595 0 30.961-6.063 43.089-18.194s18.191-26.487 18.191-43.089c0-17.232-6.064-31.913-18.191-44.038-12.129-12.135-26.492-18.198-43.089-18.198-17.236 0-31.761 6.064-43.569 18.198-11.809 12.128-17.712 26.809-17.712 44.038 0 16.602 5.904 30.96 17.712 43.089 11.809 12.132 26.332 18.194 43.569 18.194v0zM183.271 156.239c-17.236 0-31.762-6.065-43.569-18.192-11.813-12.128-17.716-26.807-17.716-44.049 0-16.591 5.904-30.956 17.716-43.090 11.808-12.128 26.332-18.19 43.569-18.19 17.236 0 31.756 6.064 43.569 18.19 11.809 12.135 17.711 26.498 17.711 43.090 0 17.236-5.903 31.92-17.711 44.049-11.814 12.128-26.334 18.192-43.569 18.192v0zM427.899 756.613c4.758-16.915 7.155-34.512 7.155-52.787 0-27.879-5.303-53.946-15.913-78.187-10.605-24.247-25.002-45.458-43.18-63.638-18.182-18.182-39.392-32.427-63.638-42.731-24.247-10.299-50.002-15.45-77.276-15.45-27.879 0-53.94 5.151-78.182 15.45-24.246 10.304-45.456 24.549-63.638 42.731s-32.575 39.391-43.181 63.638c-10.61 24.241-15.913 50.307-15.913 78.187 0 3.045 0.078 6.069 0.208 9.076-9.125-11.196-16.31-23.431-21.516-36.722-5.746-14.678-8.617-29.684-8.617-45.005v-497.916c0-12.13 3.513-21.386 10.532-27.767 7.026-6.38 15.962-9.577 26.813-9.577h22.026c0 40.855 10.373 71.338 31.119 91.441 20.742 20.112 50.589 30.17 89.525 30.17 40.858 0 70.863-10.853 90.010-32.562 19.152-21.706 28.729-51.389 28.729-89.050h261.404c10.218 0 18.988 3.513 26.332 10.537 7.34 7.019 11.008 15.955 11.008 26.809l-1.911 623.355h-171.898z" />
<glyph unicode="&#xe923;" glyph-name="iconfont-deliveryTemplate" d="M0.021 782.656v-571.803h54.329c15.979 56.249 67.114 97.153 128.474 97.153s112.489-41.542 128.47-97.153h328.278v621.021h-590.333c-26.845 0-49.218-22.374-49.218-49.218zM194.316 512.267h96.201v43.621h-96.201v52.173h85.098l-84.937 127.785h63.445c1.108-2.295 64.255-95.978 64.255-95.978l64.169 95.978 63.445-0.128-85.488-127.657h85.547v-52.173h-95.852v-43.621h95.852v-50.932h-95.852v-97.204h-63.482v97.204h-96.201v50.932zM182.825 235.781c-47.302 0-85.011-38.348-85.011-85.006 0-47.302 38.348-85.011 85.011-85.011 47.296 0 85.005 38.348 85.005 85.011 0.64 46.658-37.71 85.006-85.005 85.006zM865.447 235.781c-47.297 0-85.006-38.348-85.006-85.006 0-47.302 38.348-85.011 85.006-85.011 47.302 0 85.011 38.348 85.011 85.011 0.001 46.658-38.348 85.006-85.011 85.006zM779.803 722.824h-75.934v-511.972h32.471c15.98 56.249 67.754 97.153 129.108 97.153 61.359 0 113.134-41.542 129.114-97.153h29.401v268.453c-0.001 134.224-109.296 243.519-244.159 243.519zM950.459 430.727h-170.656v194.945h24.289c80.533 0 146.367-65.194 146.367-146.367v-48.578z" />
<glyph unicode="&#xe924;" glyph-name="iconfont-department" d="M816.685 894.362h-609.326c-78.134 0-141.699-63.565-141.699-141.699v-609.326c0-78.131 63.565-141.696 141.699-141.696h609.326c78.134 0 141.704 63.565 141.704 141.696v609.326c0 78.134-63.568 141.699-141.704 141.699zM903.411 170.076c0-63.141-51.364-114.511-114.508-114.511h-554.807c-63.141 0-114.508 51.371-114.508 114.511v554.803c0 63.141 51.368 114.508 114.508 114.508h554.806c63.144 0 114.508-51.368 114.508-114.508v-554.803zM284.955 347.72c10.048 0 18.192 8.15 18.192 18.188v63.67h418.387v-54.574c0-10.038 8.145-18.193 18.193-18.193 10.043 0 18.187 8.154 18.187 18.193v72.76c0 10.058-8.145 18.193-18.188 18.193h-211.718c1.565 2.682 2.521 5.772 2.521 9.097v54.574c0 10.053-8.145 18.187-18.188 18.187-10.048 0-18.193-8.135-18.193-18.188v-54.574c0-3.324 0.957-6.414 2.522-9.097h-211.718c-10.043 0-18.188-8.139-18.188-18.193v-81.857c0-10.038 8.145-18.188 18.188-18.188zM430.483 584.196h163.718c20.093 0 36.381 16.294 36.381 36.385v72.761c0 20.093-16.288 36.381-36.381 36.381h-163.718c-20.092 0-36.381-16.288-36.381-36.381v-72.766c0-20.092 16.289-36.381 36.381-36.381zM330.433 311.336h-90.951c-20.092 0-36.384-16.289-36.384-36.381v-63.67c0-20.092 16.294-36.38 36.384-36.38h90.949c20.092 0 36.384 16.288 36.384 36.38v63.67c0.001 20.091-16.292 36.381-36.383 36.381zM785.206 311.336h-90.954c-20.092 0-36.386-16.289-36.386-36.381v-63.67c0-20.092 16.295-36.38 36.386-36.38h90.954c20.092 0 36.381 16.288 36.381 36.38v63.67c0 20.091-16.289 36.381-36.381 36.381zM557.821 311.336h-90.954c-20.096 0-36.386-16.289-36.386-36.381v-63.67c0-20.092 16.294-36.38 36.386-36.38h90.954c20.086 0 36.38 16.288 36.38 36.38v63.67c0 20.091-16.293 36.381-36.38 36.381z" />
<glyph unicode="&#xe925;" glyph-name="iconfont-dimension" horiz-adv-x="1028" d="M36.082 644.323c41.415 101.137 82.94 202.233 124.452 303.328 40.324-100.987 79.991-202.243 119.988-303.359-26.89-0.178-53.797 0.228-80.687-0.199 0.129-150.043-0.079-300.076 0.099-450.117 124.761 104.708 249.601 209.327 374.223 314.194-17.532 20.886-35.104 41.743-52.577 62.678 104.023 33.457 208.186 66.487 312.268 99.757-51.326-95.817-103.388-191.279-155.163-286.868-17.413 20.41-34.46 41.147-51.872 61.578-124.721-104.768-249.67-209.277-374.192-314.263 153.476-0.238 306.949 0.019 460.426-0.129 0.447 27.356-0.019 54.72 0.228 82.066 101.125-41.405 202.222-82.919 303.309-124.444-100.967-40.334-202.233-79.982-303.339-119.988-0.178 26.899 0.228 53.797-0.199 80.687-197.489-0.119-394.97 0.079-592.459-0.099-0.843 0.843-1.687 1.667-2.541 2.48 0.188 197.489-0.019 394.979 0.109 592.468-27.356 0.447-54.72-0.011-82.076 0.228z" />
<glyph unicode="&#xe926;" glyph-name="iconfont-dispatchAndPay" d="M585.536 759.424c-0.32 7.616-3.008 14.336-7.616 20.352-8.576 10.944-20.16 14.336-33.6 14.272-156.864-0.128-313.728-0.064-470.528-0.064-2.688 0-5.312-0.128-7.936-0.32-17.6-1.216-31.872-15.424-33.216-33.024-0.256-3.008-0.384-5.952-0.384-9.024 0-167.808 0.192-335.616-0.256-503.488-0.128-27.136 17.344-44.096 43.136-42.88 20.16 1.024 40.512 0.192 60.736 0.192 2.048 0 4.032 0 6.464 0 10.56 64.192 60.736 107.2 114.368 111.040 79.872 5.824 126.080-35.84 146.24-110.784 0.064 0 0.64-0.192 1.216-0.192 48.256 0 96.512-0.128 144.768 0.192 5.504 0 11.456 1.344 16.32 3.84 14.976 7.424 20.544 20.352 20.544 36.736-0.192 168.96-0.128 337.92-0.128 506.88 0 2.048 0 4.16-0.128 6.272zM991.424 434.24c-3.84 25.664-14.912 48.256-29.952 68.992-13.44 18.496-27.328 36.736-41.28 54.848-17.792 23.296-35.712 46.528-54.080 69.376-11.136 13.888-26.176 19.584-44.032 19.52-52.736-0.192-105.536-0.064-158.4-0.128-4.48-0.064-9.152-0.384-13.44-1.536-17.472-4.672-27.264-18.56-27.264-38.336 0-120.512 0-241.088 0-361.6 0-2.432 0-4.864 0.256-7.296 1.856-18.24 18.688-33.344 36.16-31.936 5.184 31.744 19.776 58.752 44.224 79.936 24.768 21.376 53.824 31.808 86.464 31.808 53.952 0.128 116.608-38.656 128.896-112.448 7.616 0 15.36-0.064 23.040 0.064 6.976 0.128 14.208-0.448 20.928 1.024 17.92 3.84 28.864 18.368 28.864 37.632 0.064 60.352 0 120.768 0 181.056 0.192 2.944 0.064 6.080-0.384 9.024zM733.76 426.176c0 49.024 0 97.664 0 147.392 2.176 0 4.352 0 6.592 0 25.856 0 51.84-0.32 77.76 0.128 9.216 0.192 16-3.392 20.928-10.176 27.2-37.248 54.272-74.624 80.896-112.32 4.416-6.336 6.72-14.208 9.92-21.44 0.448-0.896 0.064-2.176 0.064-3.584-65.408 0-130.496 0-196.16 0zM272.256 271.616c-47.168 0.128-85.248-37.568-85.312-84.736-0.064-46.976 37.952-84.928 85.12-84.928 47.104 0 85.312 38.144 85.184 85.056-0.064 46.656-37.952 84.416-84.992 84.608zM789.568 271.616c-46.976 0.448-85.568-37.504-85.824-84.416-0.256-46.848 37.76-84.928 84.992-85.248 46.784-0.256 84.864 37.248 85.312 84.16 0.576 46.976-37.056 85.056-84.48 85.504z" />
<glyph unicode="&#xe927;" glyph-name="iconfont-dispatchType" d="M512.001 878.742c-237.508 0-430.737-193.24-430.737-430.748s193.229-430.736 430.737-430.736c237.507 0 430.76 193.229 430.76 430.736 0 237.508-193.253 430.748-430.76 430.748zM512.001 72.656c-206.957 0-375.315 168.382-375.315 375.337s168.357 375.326 375.315 375.326c206.953 0 375.337-168.371 375.337-375.326s-168.384-375.337-375.337-375.337zM263.725 400.467h113.707c11.286 0 20.471 9.158 20.471 20.469 0 11.257-9.185 20.442-20.471 20.442h-113.707c-11.258 0-20.391-9.184-20.391-20.442 0-11.312 9.133-20.469 20.391-20.469zM293.093 350.423h-29.369c-11.234 0-20.391-9.182-20.391-20.469 0-11.26 9.158-20.416 20.391-20.416h29.369c11.311 0 20.442 9.156 20.442 20.416 0.001 11.288-9.13 20.469-20.442 20.469zM331.956 536.874h113.679c11.26 0 20.446 9.171 20.446 20.456 0 11.259-9.185 20.418-20.446 20.418h-113.679c-11.26 0-20.445-9.158-20.445-20.418 0-11.285 9.184-20.456 20.445-20.456zM286.503 468.671h113.681c11.234 0 20.391 9.184 20.391 20.445 0 11.284-9.159 20.443-20.391 20.443h-113.681c-11.311 0-20.469-9.159-20.469-20.443 0-11.26 9.159-20.445 20.469-20.445zM627.547 387.936c-42.622 0-77.309-34.685-77.309-77.31 0-42.598 34.686-77.259 77.309-77.259 42.548 0 77.259 34.66 77.259 77.259 0 42.625-34.711 77.31-77.259 77.31zM627.547 274.255c-20.129 0-36.423 16.291-36.423 36.371 0 20.081 16.293 36.398 36.423 36.398 20.056 0 36.373-16.317 36.373-36.398s-16.318-36.371-36.373-36.371zM755.967 478.659c-0.415 0.752-0.881 1.531-1.479 2.256l-48.125 61.874c-21.401 27.565-63.871 48.357-98.74 48.357h-50.615v15.098c0 23.804-19.326 43.157-43.089 43.157h-159.238c-11.258 0-20.444-9.172-20.444-20.444 0-11.286 9.185-20.456 20.444-20.456h159.237c1.219 0 2.232-1.011 2.232-2.258v-125.511c0-23.738 19.431-43.092 43.376-43.092l192.937 0.311c1.374 0 2.412-1.088 2.412-2.049v-91.395c0-1.17-0.983-2.076-2.307-2.076h-22.753c-11.233 0-20.391-9.16-20.391-20.444 0-11.258 9.159-20.445 20.391-20.445h22.753c23.814 0 43.169 19.303 43.169 42.964v91.395c-0.001 22.392-17.408 40.863-39.771 42.757zM559.448 478.528c-1.348 0-2.441 0.986-2.441 2.206v69.513h50.615c21.951 0 53.001-15.201 66.493-32.545l30.302-38.966-144.97-0.208zM400.184 387.936c-42.647 0-77.309-34.685-77.309-77.31 0-42.598 34.661-77.259 77.309-77.259 42.597 0 77.283 34.66 77.283 77.259 0.001 42.625-34.685 77.31-77.283 77.31zM400.184 274.255c-20.080 0-36.424 16.291-36.424 36.371 0 20.081 16.343 36.398 36.424 36.398 20.056 0 36.371-16.317 36.371-36.398s-16.316-36.371-36.371-36.371zM521.699 350.423h-18.625c-11.312 0-20.467-9.182-20.467-20.469 0-11.26 9.156-20.416 20.467-20.416h18.625c11.261 0 20.445 9.156 20.445 20.416 0 11.288-9.183 20.469-20.445 20.469zM511.998 878.374c-237.274 0-430.341-193.067-430.341-430.353 0-237.324 193.067-430.393 430.341-430.393 237.325 0 430.394 193.069 430.394 430.393 0 237.286-193.069 430.353-430.394 430.353zM511.998 73.561c-206.453 0-374.459 167.954-374.459 374.459 0 206.466 168.006 374.446 374.459 374.446 206.505 0 374.459-167.98 374.459-374.446 0-206.505-167.954-374.459-374.459-374.459z" />
<glyph unicode="&#xe928;" glyph-name="iconfont-distribution" d="M985.6 332.8h-128c-51.2 89.6-147.2 204.8-320 211.2v140.8h83.2c12.8 0 25.6 12.8 25.6 25.6v204.8c0 12.8-12.8 25.6-25.6 25.6h-211.2c-12.8 0-25.6-6.4-25.6-25.6v-204.8c0-12.8 12.8-25.6 25.6-25.6h83.2v-140.8c-179.2-6.4-275.2-115.2-320-211.2h-128c-12.8 0-25.6-12.8-25.6-25.6v-204.8c0-12.8 12.8-25.6 25.6-25.6h204.8c12.8 0 25.6 12.8 25.6 25.6v204.8c0 12.8-12.8 25.6-25.6 25.6h-38.4c44.8 76.8 128 166.4 281.6 172.8v-172.8h-83.2c-12.8 0-25.6-6.4-25.6-19.2v-204.8c0-12.8 12.8-25.6 25.6-25.6h204.8c12.8 0 25.6 12.8 25.6 25.6v204.8c0 12.8-12.8 25.6-25.6 25.6h-83.2v166.4c147.2-6.4 236.8-89.6 281.6-172.8h-32c-12.8 0-25.6-12.8-25.6-25.6v-204.8c0-12.8 12.8-25.6 25.6-25.6h204.8c12.8 0 25.6 12.8 25.6 25.6v204.8c0 19.2-12.8 25.6-25.6 25.6z" />
<glyph unicode="&#xe929;" glyph-name="iconfont-distributionWareHouseConfig" d="M820.642 444.313c0-62.493 0.122-124.987-0.053-187.479-0.083-29.428-8.578-56.145-27.574-79.037-17.568-21.173-39.695-35.174-66.726-40.707-9.294-1.902-18.894-3.223-28.358-3.243-110.523-0.22-221.046-0.27-331.57-0.070-36.958 0.068-68.395 13.593-93.024 41.464-15.449 17.482-24.763 38.085-27.998 61.213-1.129 8.072-1.616 16.297-1.623 24.454-0.098 123.759-0.069 247.517-0.069 371.276 0 26.638 7.011 50.984 24.387 71.607 14.552 17.271 32.723 29.227 55.032 33.837 9.414 1.945 19.108 2.8 28.722 3.436 8.423 0.558 16.912 0.179 25.372 0.098 8.698-0.083 13.847-3.658 14.537-12.189 0.864-10.677 0.871-21.531 0.005-32.209-0.698-8.606-5.747-12.095-14.48-12.264-12.134-0.235-24.326 0.243-36.392-0.783-20.787-1.766-39.11-21.778-40.029-42.678-0.168-3.815-0.257-7.636-0.258-11.455-0.013-124.032 0.040-248.064-0.086-372.095-0.013-12.878 2.168-25.020 9.108-35.926 13.172-20.703 32.002-31.044 56.743-30.999 75.593 0.138 151.184 0.050 226.777 0.050 35.068 0 70.135 0.173 105.201-0.061 22.419-0.15 40.203 8.785 53.469 26.496 8.679 11.587 12.097 24.921 12.040 39.515-0.233 60.855-0.098 121.712-0.098 182.568 0 64.813-0.064 129.626 0.065 194.438 0.020 10.215-1.597 19.83-7.187 28.492-7.976 12.361-19.136 20.353-33.869 21.717-11.238 1.041-22.619 0.597-33.937 0.696-11.71 0.102-16.911 5.22-16.825 17.079 0.068 9.392-0.152 18.834 0.749 28.158 0.69 7.141 5.149 11.214 12.344 11.252 19.307 0.101 38.656 1.553 57.768-3.532 27.527-7.325 48.37-23.17 63.028-47.326 10.545-17.377 14.716-36.583 14.757-56.676 0.128-63.041 0.047-126.081 0.047-189.119zM379.035 727.473c-13.836 0-27.394 0.881-40.769-0.304-9.189-0.815-18.709-3.236-27.071-7.115-35.972-16.691-54.179-45.764-54.299-85.073-0.387-126.476-0.159-252.954-0.12-379.432 0.003-11.647 1.457-23.156 5.196-34.229 15.325-45.377 55.222-74.389 103.205-74.46 111.332-0.165 222.663-0.102 333.996-0.015 26.923 0.021 50.944 8.582 71.245 26.417 25.146 22.091 37.107 50.259 37.113 83.588 0.024 124.431 0.034 248.861-0.053 373.292-0.005 7.202-0.243 14.523-1.503 21.587-5.942 33.313-24.743 56.582-55.89 69.791-20.713 8.784-42.579 6.386-64.187 6.357-0.204 0-0.407-0.308-0.656-0.509 0-9.741 0-19.509 0-29.569 1.524-0.074 2.848-0.19 4.172-0.193 8.186-0.017 16.402 0.421 24.55-0.137 7.29-0.498 14.827-1.107 21.697-3.365 25.999-8.542 41.122-30.921 41.13-59.923 0.034-126.068 0.037-252.135-0.056-378.204-0.004-5.959-0.423-12.055-1.705-17.853-8.006-36.209-37.971-60.461-75.702-60.534-111.469-0.213-222.939-0.174-334.407-0.009-29.539 0.043-52.033 13.314-67.3 38.534-7.613 12.577-10.234 26.499-10.226 41.12 0.067 125.25 0.038 250.498 0.039 375.748 0 0.819-0.007 1.637 0.007 2.456 0.547 30.291 18.128 53.387 46.286 60.166 5.898 1.42 12.142 1.701 18.246 1.912 8.945 0.308 17.909 0.080 27.062 0.080-0.001 10.3-0.001 20.069-0.001 29.877zM503.827 730.362c-15.954 0-31.356 0-46.758 0-5.049 0-10.099-0.092-15.145 0.026-8.235 0.192-13.372 3.758-14.016 11.829-0.863 10.812-0.933 21.795-0.070 32.604 0.685 8.567 5.822 12.108 14.525 12.208 7.504 0.086 15.009 0.019 22.514 0.019 51.986 0 103.973 0.004 155.959-0.006 5.504-0.001 10.902-0.795 13.703-6.231 1.442-2.799 2.297-6.174 2.419-9.326 0.325-8.447 0.203-16.916 0.088-25.375-0.143-10.603-5.392-15.721-16.022-15.739-18.557-0.031-37.113-0.009-55.671-0.009-1.479 0-2.957 0-4.647 0 0-1.498 0-2.665 0-4.074 0.889-0.122 1.789-0.352 2.688-0.353 14.054-0.025 28.108 0.025 42.162-0.043 5.33-0.026 10.502-0.918 13.482-6.015 1.27-2.172 2.394-4.793 2.461-7.242 0.28-10.083 0.733-20.225-0.037-30.255-0.714-9.303-6.133-13.244-15.923-13.272-16.646-0.048-33.293-0.013-49.939-0.013-32.065 0-64.131-0.028-96.195 0.050-2.684 0.006-5.462 0.401-8.029 1.175-5.508 1.661-8.261 6.047-8.462 11.381-0.395 10.477-0.824 21.039 0.075 31.452 0.777 8.998 6.127 12.696 15.465 12.743 13.508 0.068 27.016 0.018 40.525 0.019 1.477 0 2.954 0 4.631 0 0.077 1.58 0.134 2.767 0.215 4.447zM455.798 682.545c51.125 0 101.909 0 152.528 0 0 10.228 0 20.105 0 30.447-20.465 0-40.589 0-60.651 0 0 10.37 0 20.261 0 30.528 25.47 0 50.651 0 76.040 0 0 10.272 0 20.16 0 30.179-61.167 0-122.080 0-183.161 0 0-10.126 0-20.003 0-30.399 25.55 0 50.833 0 76.206 0 0-10.313 0-20.104 0-30.501-20.368 0-40.59 0-60.961 0 0-10.395 0-20.184 0-30.255zM532.198 367.236c50.743 0 101.486 0.004 152.229-0.016 2.036-0.001 4.115-0.024 6.103-0.405 7.051-1.352 10.77-4.379 11.204-11.485 0.664-10.86 0.729-21.831-0.034-32.679-0.545-7.77-6.060-11.577-14.501-12.001-0.953-0.048-1.909-0.010-2.864-0.010-101.486 0-202.973-0.004-304.459 0.027-2.159 0.001-4.34 0.268-6.472 0.633-6.225 1.068-10.492 4.753-10.783 11.026-0.511 11.011-0.689 22.093-0.007 33.083 0.443 7.141 4.132 10.063 11.249 11.415 1.989 0.378 4.067 0.395 6.104 0.396 50.745 0.020 101.487 0.016 152.231 0.016zM375.441 324.002c104.713 0 208.972 0 313.311 0 0 10.131 0 19.999 0 29.87-104.57 0-208.836 0-313.311 0 0-10.023 0-19.789 0-29.87zM531.27 472.031c50.748 0 101.497 0.002 152.244-0.010 1.768 0 3.561 0.014 5.301-0.252 7.94-1.216 11.766-4.309 12.293-12.256 0.692-10.446 0.696-21.004 0.017-31.451-0.534-8.22-5.57-11.978-14.372-12.609-0.815-0.058-1.636-0.018-2.455-0.018-101.906 0-203.812-0.007-305.717 0.037-2.423 0.001-4.892 0.358-7.258 0.904-4.656 1.073-8.384 4.11-8.663 8.714-0.707 11.645-1.262 23.391-0.486 35.003 0.539 8.079 5.829 11.583 13.987 11.925 1.226 0.051 2.455 0.013 3.683 0.013 50.476 0.001 100.951 0.001 151.427 0.001zM374.796 428.769c104.569 0 208.845 0 313.361 0 0 10.083 0 19.931 0 29.95-104.583 0-208.861 0-313.361 0 0-9.978 0-19.753 0-29.95zM531.754 520.582c-50.889 0-101.779-0.030-152.668 0.069-3.342 0.006-6.919 0.42-9.97 1.663-4.899 1.994-6.94 6.64-7.1 11.575-0.321 9.936-0.69 19.939 0.093 29.824 0.73 9.227 5.578 12.94 14.891 13.48 0.952 0.055 1.909 0.012 2.864 0.012 101.37 0 202.738 0.006 304.108-0.033 2.428-0.001 4.886-0.332 7.279-0.782 5.363-1.008 9.395-4.241 9.674-9.626 0.599-11.512 0.924-23.105 0.209-34.594-0.448-7.208-4.651-10.269-11.818-11.329-1.743-0.258-3.533-0.249-5.303-0.249-50.754-0.012-101.507-0.010-152.26-0.010zM688.527 533.849c0 10.266 0 20.119 0 29.972-104.646 0-208.951 0-313.348 0 0-10.128 0-19.971 0-29.972 104.578 0 208.791 0 313.348 0z" />
<glyph unicode="&#xe92a;" glyph-name="iconfont-ec" d="M360.461 29.444c-0.322 0-0.585 0.003-0.788 0.006h-164.306c-0.005 0-0.011 0-0.016 0-4.704 0-46.231 0.921-77.613 32.3-30.413 30.411-29.811 71.415-29.303 80.125v161.057c0 0.078 0 0.156 0.001 0.233 0.044 4.694 1.323 46.747 32.3 77.724 25.72 25.719 58.342 28.496 71.174 28.496 2.499 0 4.483-0.098 5.809-0.192h161.771c0.457 0.013 1.122 0.025 1.978 0.025 10.813 0 48.208-2.115 75.423-29.328 30.006-30.004 31.257-72.031 31.301-76.725 0-0.077 0.001-0.155 0.001-0.233v-163.222c0-4.776-0.907-47.565-32.301-78.958-29.798-29.797-68.063-31.307-75.431-31.307zM360.299 79.419c0.065 0 0.128-0.002 0.254-0.008 1.843 0.016 23.88 0.547 40.005 16.672 16.906 16.907 17.667 43.367 17.667 43.626v162.923c-0.069 1.814-1.301 26.562-16.667 41.927-14.282 14.28-37.49 14.693-40.089 14.693-0.198 0-0.354-0.002-0.463-0.004-0.446-0.026-0.59-0.021-1.076-0.021h-163.23c-1.044 0-1.576 0.004-2.568 0.129-0.297 0.021-1.073 0.063-2.221 0.063-6.609 0-23.33-1.351-35.841-13.861-16.39-16.389-17.626-41.703-17.667-42.824v-161.693c0-0.788-0.002-1.19-0.074-1.941-0.086-1.762-0.965-26.312 14.742-42.019 16.918-16.918 42.038-17.666 42.284-17.666h164.573c0.21 0.001 0.293 0.004 0.372 0.004zM825.3 465.321h-49.968v251.996h-250.889v49.966h300.857zM516.021 422.682l-35.332 35.331 259.49 259.48 35.154-0.176 0.18-35.155zM967.649 795.944c-0.311 4.467-3.818 44.53-34.239 74.949-30.73 30.729-72.923 33.108-77.621 33.277-0.3 0.010-0.609 0.020-0.898 0.020h-656.672c-4.487-0.010-44.712-1.019-74.992-31.299-30.291-30.29-31.29-71.901-31.3-76.628v-331.655l49.968-0.12v331.565c0.040 1.349 1.019 25.852 16.669 41.502 15.57 15.569 38.565 16.619 39.964 16.669h655.692c2.727-0.21 27.752-2.568 43.841-18.667 15.871-15.859 19.188-38.394 19.678-42.501v-653.107c-0.050-1.369-1.439-28.671-18.109-44.321-17.218-16.159-39.664-17.177-40.953-17.217h-333.857v-49.966h334.067c4.316 0 43.121 0.869 74.952 30.749 32.369 30.389 33.808 75.22 33.868 80.226v654.846c0 0.56-0.030 1.119-0.060 1.679z" />
<glyph unicode="&#xe92b;" glyph-name="iconfont-ecCommentStatistic" d="M573.263 539.226h245.744c11.299 0 20.478 9.147 20.478 20.478 0 11.3-9.179 20.478-20.478 20.478h-245.744c-11.297 0-20.479-9.178-20.479-20.478 0-11.33 9.182-20.478 20.479-20.478zM573.263 375.397h245.744c11.299 0 20.478 9.148 20.478 20.479 0 11.321-9.179 20.478-20.478 20.478h-245.744c-11.297 0-20.479-9.158-20.479-20.478 0-11.331 9.182-20.479 20.479-20.479zM573.263 457.312h163.829c11.298 0 20.479 9.148 20.479 20.479 0 11.299-9.181 20.477-20.479 20.477h-163.829c-11.297 0-20.479-9.179-20.479-20.477 0-11.331 9.182-20.479 20.479-20.479zM573.263 621.139h163.829c11.298 0 20.479 9.148 20.479 20.479 0 11.299-9.181 20.478-20.479 20.478h-163.829c-11.297 0-20.479-9.179-20.479-20.478 0-11.33 9.182-20.479 20.479-20.479zM204.649 375.397h163.828c11.299 0 20.478 9.148 20.478 20.479 0 11.321-9.179 20.478-20.478 20.478h-163.828c-11.299 0-20.478-9.158-20.478-20.478 0-11.331 9.18-20.479 20.478-20.479zM921.398 784.969h-819.14c-22.618 0-40.957-18.358-40.957-40.957v-573.399c0-22.608 18.339-40.957 40.957-40.957h819.14c22.619 0 40.958 18.35 40.958 40.957v573.399c0 22.598-18.339 40.957-40.958 40.957zM921.398 170.612h-204.784v81.884h40.957c11.298 0 20.479 9.181 20.479 20.509 0 11.299-9.181 20.479-20.479 20.479h-122.87c-11.3 0-20.479-9.18-20.479-20.479 0-11.328 9.179-20.509 20.479-20.509h40.955v-81.884h-327.655v81.884h40.957c11.299 0 20.478 9.181 20.478 20.509 0 11.299-9.179 20.479-20.478 20.479h-122.871c-11.299 0-20.478-9.18-20.478-20.479 0-11.328 9.179-20.509 20.478-20.509h40.958v-81.884h-204.785v573.399h819.14v-573.399zM204.649 457.312h245.743c11.299 0 20.478 9.148 20.478 20.479 0 11.299-9.179 20.477-20.478 20.477h-245.743c-11.299 0-20.478-9.179-20.478-20.477 0-11.331 9.18-20.479 20.478-20.479zM204.649 539.226h163.828c11.299 0 20.478 9.147 20.478 20.478 0 11.3-9.179 20.478-20.478 20.478h-163.828c-11.299 0-20.478-9.178-20.478-20.478 0-11.33 9.18-20.478 20.478-20.478zM204.649 621.139h245.743c11.299 0 20.478 9.148 20.478 20.479 0 11.299-9.179 20.478-20.478 20.478h-245.743c-11.299 0-20.478-9.179-20.478-20.478 0-11.33 9.18-20.479 20.478-20.479z" />
<glyph unicode="&#xe92c;" glyph-name="iconfont-ecConfig" d="M898.046 825.742h-770.042c-27.649 0-50.084-22.407-50.084-50.054v-468.757c0-27.649 22.436-50.082 50.084-50.082h287.972v-106.851h-169.027v-79.741h532.152v79.741h-169.027v106.851h287.972c27.648 0 50.081 22.434 50.081 50.082v468.757c0 27.647-22.434 50.054-50.081 50.054zM453.537 149.999v103.875h118.974v-103.875h-118.974zM910.566 306.931c0-6.911-5.608-12.52-12.52-12.52h-770.042c-6.911 0-12.521 5.609-12.521 12.52v468.757c0 6.884 5.61 12.491 12.521 12.491h770.042c6.912 0 12.52-5.608 12.52-12.491v-468.757z" />
<glyph unicode="&#xe92d;" glyph-name="iconfont-ecCustomer" d="M1007.4 362.9h-50c-4.6 16.5-11.1 32.2-19.3 46.8l35.3 35.3c6.5 6.5 6.5 17 0 23.5l-57 57c-3.2 3.2-7.5 4.8-11.7 4.8-4.3 0-8.5-1.6-11.7-4.8l-35.3-35.3c-14.6 8.2-30.3 14.7-46.8 19.3v50c0 9.1-7.5 16.6-16.6 16.6h-80.6c-9.1 0-16.6-7.5-16.6-16.6v-50c-16.5-4.6-32.2-11.1-46.8-19.3l-35.3 35.2c-3.2 3.2-7.5 4.8-11.7 4.8s-8.5-1.6-11.7-4.8l-57-57c-6.4-6.5-6.4-17 0-23.5l35.3-35.3c-8.2-14.6-14.7-30.3-19.3-46.8h-50c-9.1 0-16.6-7.5-16.6-16.6v-80.6c0-9.1 7.5-16.6 16.6-16.6h50c4.6-16.5 11.1-32.2 19.3-46.8l-35.4-35.2c-6.4-6.5-6.4-17 0-23.5l57-57c3.2-3.2 7.5-4.8 11.7-4.8s8.5 1.6 11.7 4.8l35.3 35.3c14.6-8.2 30.3-14.7 46.8-19.3v-50c0-9.1 7.5-16.6 16.6-16.6h80.6c9.1 0 16.6 7.5 16.6 16.6v50c16.5 4.6 32.2 11.1 46.8 19.3l35.3-35.3c3.2-3.2 7.5-4.8 11.7-4.8 4.3 0 8.5 1.6 11.7 4.8l57 57c6.5 6.5 6.5 17 0 23.5l-35.3 35.3c8.2 14.6 14.7 30.3 19.3 46.8h50c9.1 0 16.6 7.5 16.6 16.6v80.6c0.1 9.1-7.4 16.6-16.5 16.6zM895.8 266.2c-3.2-11.5-7.7-22.5-13.4-32.6l-20.3-35.9-35.9-20.3c-10.1-5.7-21-10.2-32.6-13.4l-39.7-11-39.7 11.1c-11.5 3.2-22.5 7.7-32.6 13.4l-35.9 20.3-20.3 35.9c-5.7 10.1-10.2 21-13.4 32.6l-11 39.6 11.1 39.7c3.2 11.5 7.7 22.5 13.4 32.6l20.3 35.9 35.9 20.3c10.1 5.7 21 10.2 32.6 13.4l39.7 11.1 39.7-11.1c11.5-3.2 22.5-7.7 32.6-13.4l35.9-20.3 20.3-35.9c5.7-10.1 10.2-21 13.4-32.6l11.1-39.7-11.2-39.7zM753.9 407.2c-55.9 0-101.3-45.3-101.3-101.3 0-55.9 45.3-101.3 101.3-101.3 55.9 0 101.3 45.3 101.3 101.3s-45.3 101.3-101.3 101.3zM753.9 268.7c-20.6 0-37.3 16.7-37.3 37.3s16.7 37.3 37.3 37.3 37.3-16.7 37.3-37.3-16.7-37.3-37.3-37.3zM672 36.5c-17.7 0-32-14.3-32-32v-4.5h-576v161.5c0 157.5 123.2 283.9 280.5 287.9 5 0.1 10 0.1 14.9 0 37.1-0.9 73-8.8 106.8-23.5 16.2-7 35.1 0.4 42.1 16.7 7 16.2-0.4 35.1-16.7 42.1-4.8 2.1-9.6 4-14.4 5.9 75.4 43.4 126.2 124.8 126.2 218 0 138.8-112.5 251.4-251.4 251.4s-251.4-112.6-251.4-251.4c0-93.2 50.7-174.6 126.1-218-47.2-17.9-90.3-46.1-126.5-83.2-64.6-66.1-100.2-153.5-100.2-245.9v-169.7c0-30.8 25-55.8 55.7-55.8h592.5c30.7 0 55.7 25 55.7 55.7v12.8c0.1 17.7-14.2 32-31.9 32zM164.6 708.6c0 50.1 19.5 97.1 54.9 132.5s82.4 54.9 132.5 54.9c50.1 0 97.1-19.5 132.5-54.9s54.9-82.5 54.9-132.5c0-50.1-19.5-97.1-54.9-132.5s-82.5-54.9-132.5-54.9c-50.1 0-97.1 19.5-132.5 54.9-35.4 35.3-54.9 82.4-54.9 132.5z" />
<glyph unicode="&#xe92e;" glyph-name="iconfont-ecCustomerIcon" d="M916 896h-808c-59.6 0-108-48.4-108-108v-680c0-59.7 48.4-108 108-108h808c59.7 0 108 48.4 108 108v680c0 59.6-48.4 108-108 108zM960 108c0-24.3-19.7-44-44-44h-60.7c-13.6 128.8-102.7 235-222.1 273.8 74.1 43.4 123.9 123.9 123.9 216-0.1 138.2-112.1 250.2-250.3 250.2s-250.1-112-250.1-250.2c0-92.1 49.8-172.6 123.9-216-119.5-38.8-208.5-145-222.2-273.8h-50.4c-24.3 0-44 19.7-44 44v680c0 24.3 19.7 44 44 44h808c24.3 0 44-19.7 44-44v-680zM506.8 367.7c-49.7 0-96.5 19.4-131.6 54.5-35.2 35.2-54.5 81.9-54.5 131.6s19.4 96.5 54.5 131.6c35.2 35.2 81.9 54.5 131.6 54.5s96.5-19.4 131.6-54.5c35.2-35.2 54.5-81.9 54.5-131.6s-19.4-96.5-54.5-131.6c-35.1-35.2-81.8-54.5-131.6-54.5zM532.8 289.7c35.2 0 69.2-6.9 101.3-20.4 31-13.1 58.8-31.9 82.7-55.8s42.7-51.8 55.8-82.7c8.9-21 14.9-42.8 18-65.2h-567.5c3.1 22.4 9.1 44.3 18 65.2 13.1 31 31.9 58.8 55.8 82.7s51.8 42.7 82.7 55.8c32 13.6 66.1 20.4 101.3 20.4h51.9z" />
<glyph unicode="&#xe92f;" glyph-name="iconfont-ecCustomerLevel" horiz-adv-x="1026" d="M996.9 589l-111.7 111.6c-18.2 18.2-42.4 28.2-68.1 28.2s-49.9-10-68.1-28.2l-111.3-111.4c-18.2-18.2-28.2-42.3-28.2-68.1v-297.6c0-25.7 10-49.9 28.2-68.1s42.3-28.2 68-28.2c0 0 0.1 0 0.1 0l223.1 0.2c53 0 96.2 43.2 96.2 96.3v297.2c0 25.7-10 49.9-28.2 68.1zM961.1 223.7c0-17.8-14.5-32.2-32.2-32.3l-223.1-0.2c0 0 0 0 0 0-8.6 0-16.7 3.4-22.8 9.4-6.1 6.1-9.5 14.2-9.5 22.8v297.6c0 8.6 3.4 16.7 9.4 22.8l111.4 111.4c6.1 6.1 14.2 9.4 22.8 9.4s16.7-3.4 22.8-9.4l111.7-111.7c6.1-6.1 9.4-14.2 9.4-22.8l0.1-297zM672 76.5c-17.7 0-32-14.3-32-32v-44.5h-576v161.5c0 157.5 123.2 283.9 280.5 287.9 5 0.1 10 0.1 14.9 0 59.4-1.5 116-21 163.7-56.2 14.2-10.5 34.2-7.5 44.8 6.7 10.5 14.2 7.5 34.2-6.7 44.8-26 19.3-54.2 34.6-83.9 46 75.4 43.4 126.1 124.8 126.1 218 0 138.7-112.5 251.3-251.4 251.3s-251.4-112.6-251.4-251.4c0-93.2 50.7-174.6 126.1-218-47.2-17.9-90.3-46.1-126.5-83.2-64.6-66.1-100.2-153.5-100.2-245.9v-169.7c0-30.8 25-55.8 55.7-55.8h592.5c30.7 0 55.7 25 55.7 55.7v52.8c0.1 17.7-14.2 32-31.9 32zM164.6 708.6c0 50.1 19.5 97.1 54.9 132.5s82.4 54.9 132.5 54.9c50.1 0 97.1-19.5 132.5-54.9s54.9-82.5 54.9-132.5c0-50.1-19.5-97.1-54.9-132.5s-82.5-54.9-132.5-54.9c-50.1 0-97.1 19.5-132.5 54.9-35.4 35.3-54.9 82.4-54.9 132.5zM719.4 507.5v-56.3c11.8 1.4 24.7 4.8 38.8 10.5 14.1 5.6 25.2 12 33.3 19v-247.7h66v321.6h-41.9c-26.9-20.6-59.1-36.3-96.2-47.1z" />
<glyph unicode="&#xe930;" glyph-name="iconfont-ecCustomerSign" d="M959.969 447.99c-1.703-382.076-63.951-448.156-447.988-447.99s-448.605 64.248-447.977 447.99c0.629 383.741 63.764 448.948 447.965 448 384.203-0.948 449.701-65.922 448-448zM499.711 245.009c-15.247 0-30.265 1.61-44.891 4.775-96.333 20.846-166.23 106.48-166.23 206.352 0 116.602 94.522 211.127 211.122 211.127 77.71 0 149.554-44.498 186.411-110.897 0.051-0.095 0.135-0.166 0.239-0.22 2.443-3.436 6.453-5.677 10.99-5.677 7.443 0 13.478 6.033 13.478 13.479 0 2.691-0.789 5.198-2.15 7.305-0.019 0.099-0.053 0.19-0.098 0.276-40.853 72.338-119.871 122.688-208.871 122.688-131.486 0-238.073-106.591-238.073-238.080 0-114.127 80.301-209.497 187.482-232.692 16.305-3.525 33.229-5.388 50.591-5.388 7.439 0 13.473 6.036 13.473 13.478 0.002 7.442-6.033 13.474-13.473 13.474zM798.998 507.864l-7.132 5.185c-12.065 8.763-28.959 6.14-37.694-5.888l-153.158-210.81 50.879-36.964 153.158 210.808c8.769 12.081 6.027 28.892-6.053 37.669zM585.141 221.010l61.471 31.108-50.877 36.968-10.594-68.076zM432.33 528.009c0 17.365-14.078 31.444-31.444 31.444s-31.445-14.079-31.445-31.444c0-17.367 14.079-31.445 31.445-31.445s31.444 14.078 31.444 31.445zM620.992 528.009c0 17.365-14.080 31.444-31.444 31.444-17.365 0-31.443-14.079-31.443-31.444 0-17.367 14.078-31.445 31.443-31.445s31.444 14.078 31.444 31.445zM499.711 307.898c58.14 0 108.761 38.427 124.958 93.376 2.807 9.521-2.636 19.511-12.152 22.315-9.516 2.807-19.508-2.635-22.314-12.154-11.723-39.769-48.391-67.604-90.492-67.604-42.219 0-78.958 27.981-90.583 67.898-2.773 9.529-12.746 15.003-22.275 12.229-9.526-2.776-15.001-12.749-12.225-22.278 16.059-55.15 66.782-93.782 125.083-93.782z" />
<glyph unicode="&#xe931;" glyph-name="iconfont-ecCustomerStatistic" horiz-adv-x="1218" d="M818.065 918.791c61.827-64.706 137.963-91.164 137.963-248.528 0-74.669-22.749-144.024-61.689-201.562 9.686-1.218 19.511-2.076 29.53-2.076 128 0 231.756 103.479 231.756 231.175 0 372.93-505.524 169.735-337.56 220.99zM304.46 651.029c0-159.938 130.020-289.626 290.401-289.626s290.373 129.688 290.373 289.626-129.993 289.626-290.373 289.626-290.401-129.688-290.401-289.626zM547.203 861.89c-33.488-160.657 156.976-117.566 270.419-210.861 0-122.714-99.743-222.153-222.762-222.153-123.046 0-222.762 99.466-222.762 222.153 195.114 66.145 86.127 179.2 175.104 210.861zM1080.486 413.931h-208.592c-48.045-57.316-113.719-73.977-188.61-92.852l-17.159-59.115h172.696c82.031 0 112.086-86.071 116.542-98.691h262.365l-62.104 192.899c0-0.028-17.795 57.759-75.139 57.759zM791.082 238.246h-376.583c-71.846 0-91.883-72.4-91.883-72.4l-93.322-229.846h733.738l-77.796 229.846c0 0-22.279 72.4-94.153 72.4zM369.941 261.936h150.971l-11.818 51.394c-91.385 12.371-135.611 33.294-192.014 100.573h-169.264c-57.344 0-73.313-57.787-73.313-57.787l-74.503-192.899h256.194c4.013 12.648 31.716 98.719 113.747 98.719zM291.757 441.386c1.467 0 2.851 0.194 4.262 0.221-39.77 57.925-63.101 153.13-63.101 228.656 0 141.146 84.383 188.859 149.31 254.063 188.416-38.082-322.228 125.869-322.228-226.581 0-127.668 103.756-256.36 231.756-256.36z" />
<glyph unicode="&#xe932;" glyph-name="iconfont-ecCustomerTag" horiz-adv-x="1026" d="M833.7 544.6c-53 0-96.1-43.1-96.1-96s43.1-96 96.1-96v0c52.9 0 95.9 43.1 95.9 96 0 53-43 96-95.9 96zM833.7 416.6c-17.7 0-32.1 14.4-32.1 32s14.4 32 32.1 32c17.3 0 31.9-14.6 31.9-32 0-17.3-14.6-32-31.9-32zM929.2 639.2h-156.8c-25.6 0-49.7-10-67.8-28.1l-209.4-209.3c-18.1-18.1-28.1-42.2-28.1-67.9 0-25.6 10-49.7 28.1-67.8l157.1-156.8c18.7-18.7 43.2-28 67.8-28s49.1 9.3 67.8 28l209.1 209c18.1 18.1 28.1 42.2 28.1 67.8v157.2c0 52.9-43 95.9-95.9 95.9zM961.1 386.2c0-8.5-3.3-16.5-9.3-22.6l-209.2-209.1c-12.4-12.4-32.7-12.4-45.1 0l-157.1 156.8c-6 6-9.4 14-9.4 22.6 0 8.5 3.3 16.6 9.3 22.6l209.4 209.3c6 6 14 9.3 22.6 9.3h156.8c17.6 0 31.9-14.3 31.9-31.9v-157zM672 41.1c-17.7 0-32-14.3-32-32v-9.1h-576v161.5c0 158.8 129.2 288 288 288 25.2 0 50.2-3.3 74.3-9.7 2.8-0.7 5.5-1.1 8.3-1.1 14.1 0 27.1 9.5 30.9 23.8 1.9 7.2 1.2 14.5-1.5 20.9 82.7 41.2 139.5 126.5 139.5 225.2-0.1 138.8-112.6 251.4-251.5 251.4s-251.4-112.6-251.4-251.4c0-93.3 50.8-174.7 126.2-218.1-3.9-1.5-7.9-3.1-11.8-4.7-41.9-17.7-79.6-43.1-111.9-75.4s-57.7-70-75.4-111.9c-18.4-43.4-27.7-89.5-27.7-137v-169.7c0-30.8 25-55.8 55.7-55.8h592.5c30.7 0 55.7 25 55.7 55.7v17.4c0.1 17.7-14.2 32-31.9 32zM164.6 708.6c0 50.1 19.5 97.1 54.9 132.5s82.4 54.9 132.5 54.9c50.1 0 97.1-19.5 132.5-54.9s54.9-82.5 54.9-132.5c0-50.1-19.5-97.1-54.9-132.5s-82.5-54.9-132.5-54.9c-50.1 0-97.1 19.5-132.5 54.9-35.4 35.3-54.9 82.4-54.9 132.5z" />
<glyph unicode="&#xe933;" glyph-name="iconfont-ecInvoiceDetail" d="M896 149.995v554.005h-384v-554.005h384zM896 789.995q34.005 0 60.011-26.005t26.005-60.011v-554.005q0-34.005-26.005-60.011t-60.011-26.005h-768q-34.005 0-60.011 26.005t-26.005 60.011v554.005q0 34.005 26.005 60.011t60.011 26.005h768zM554.005 341.995h300.011v-64h-300.011v64zM554.005 554.005h300.011v-64h-300.011v64zM554.005 448h300.011v-64h-300.011v64z" />
<glyph unicode="&#xe934;" glyph-name="iconfont-ecShopWxNumber" d="M731.4 349.5l-97.8-97.8-41.7 41.7c-7.9 7.9-20.7 7.9-28.6 0s-7.9-20.7 0-28.6l51.2-51.2c0.8-0.8 1.8-1.5 2.7-2.2 0.7-0.9 1.1-2 1.9-2.9 7.9-7.9 20.8-7.9 28.7 0l112.3 112.3c7.9 7.9 7.9 20.8 0 28.7-7.9 8-20.8 8-28.7 0zM503.3 832c-229.7 0-416-186.2-416-416 0-229.7 186.2-416 416-416s416 186.2 416 416c0 229.7-186.2 416-416 416zM231.1 197.8c-4.5 0-8.1 1.4-8.1 3.1v83.6c0 3 8.1 6.3 8.1 6.3s38.3 47.1 86.9 84.2c22.5 17.2 47.2 32.2 67.3 43.4v19.5c-36.2 23.2-60.9 68.2-60.9 120.1 0 75.6 52.2 126.8 116.7 126.8 64.4 0 116.7-51.2 116.7-126.8 0-51.9-24.6-96.9-60.9-120.1v-19c12.3-6.9 26.5-15.5 40.8-25-19.2-26.7-30.6-59.3-30.6-94.6 0-38.4 13.4-73.7 35.7-101.5h-311.7zM669.3 157.3c-78.4 0-142 63.6-142 142s63.6 142 142 142 142-63.6 142-142-63.5-142-142-142z" />
<glyph unicode="&#xe935;" glyph-name="iconfont-employee" d="M1010 366.2l-131.4 131.6c-9 9.1-21.3 14.2-34.2 14.2h-214.4c-29.8 0-54-24.1-54-53.8v-402.4c0-29.7 24.2-53.8 54-53.8h340c29.8 0 54 24.1 54 53.8v276.5c0 12.7-5 24.9-14 33.9zM960 66h-320v382h197.9l122.1-122.3v-259.7zM691.7 320h91.9c17.7 0 32 14.3 32 32s-14.3 32-32 32h-91.9c-17.7 0-32-14.3-32-32s14.3-32 32-32zM659.7 256c0-17.7 14.3-32 32-32h206.9c17.7 0 32 14.3 32 32s-14.3 32-32 32h-206.9c-17.7 0-32-14.3-32-32zM898.6 192h-206.9c-17.7 0-32-14.3-32-32s14.3-32 32-32h206.9c17.7 0 32 14.3 32 32s-14.4 32-32 32zM546.3 0h-482.3v161.5c0 157.5 123.2 283.9 280.5 287.9 5 0.1 10 0.1 14.9 0 37.1-0.9 73-8.8 106.8-23.5 16.2-7 35.1 0.4 42.1 16.7 7 16.2-0.4 35.1-16.7 42.1-4.8 2.1-9.6 4-14.4 5.9 75.4 43.4 126.2 124.8 126.2 218 0 138.8-112.5 251.4-251.4 251.4s-251.4-112.6-251.4-251.4c0-93.2 50.7-174.6 126.1-218-47.2-17.9-90.3-46.1-126.5-83.2-64.6-66.1-100.2-153.5-100.2-245.9v-169.7c0-30.8 25-55.8 55.7-55.8h490.5c17.7 0 32 14.3 32 32s-14.3 32-31.9 32zM164.6 708.6c0 50.1 19.5 97.1 54.9 132.5s82.4 54.9 132.5 54.9c50.1 0 97.1-19.5 132.5-54.9s54.9-82.5 54.9-132.5c0-50.1-19.5-97.1-54.9-132.5s-82.5-54.9-132.5-54.9c-50.1 0-97.1 19.5-132.5 54.9-35.4 35.3-54.9 82.4-54.9 132.5z" />
<glyph unicode="&#xe936;" glyph-name="iconfont-enumeration" d="M969.4 815v90.6h-86.2v-192.8h86.2zM883.2 633.6h54.4v-195h-54.4v195zM0 887.2v-861.2c1-49.8 43.8-90 93.8-90h731.2v60h-731.2c-17.6 0-31.8 14.2-31.8 31.8s14.2 31.8 31.8 31.8h731.2v900.4h-753.8c-35.6-7.8-63.6-36.8-71.2-72.8zM267.6 742.6h416.8v-72.4h-416.8v72.4zM267.6 548.4h416.8v-72.4h-416.8v72.4zM267.6 354.4h416.8v-72.4h-416.8v72.4zM126.8 742.6h72.4v-72.4h-72.4v72.4zM126.8 548.4h72.4v-72.4h-72.4v72.4zM126.8 354.4h72.4v-72.4h-72.4v72.4zM883.2 360.2h121.8v-203h-121.8v203z" />
<glyph unicode="&#xe937;" glyph-name="iconfont-enumerationCategory" d="M875.614-30.857h-728.594c-27.649 0-50.142 22.479-50.142 50.11v858.105c0 27.631 22.493 50.111 50.142 50.111h728.594c27.649 0 50.142-22.48 50.142-50.111v-858.106c0-27.63-22.494-50.109-50.142-50.109zM160.323 32.588h701.988v831.436h-701.988v-831.436zM696.558 703.456h-285.172c-14.343 0-25.97-11.624-25.97-25.97 0-14.343 11.628-25.966 25.97-25.966h285.172c14.341 0 25.966 11.624 25.966 25.966 0 14.346-11.626 25.97-25.966 25.97zM309.127 660.301c0-5.216-4.228-9.444-9.444-9.444h-34.372c-5.217 0-9.445 4.229-9.445 9.444v34.373c0 5.217 4.229 9.444 9.445 9.444h34.372c5.217 0 9.444-4.228 9.444-9.444v-34.373zM696.558 550.668h-285.172c-14.343 0-25.97-11.624-25.97-25.97 0-14.343 11.628-25.966 25.97-25.966h285.172c14.341 0 25.966 11.624 25.966 25.966 0 14.347-11.626 25.97-25.966 25.97zM309.127 507.513c0-5.217-4.228-9.444-9.444-9.444h-34.372c-5.217 0-9.445 4.228-9.445 9.444v34.373c0 5.216 4.229 9.444 9.445 9.444h34.372c5.217 0 9.444-4.229 9.444-9.444v-34.373zM696.558 397.878h-285.172c-14.343 0-25.97-11.624-25.97-25.97 0-14.343 11.628-25.966 25.97-25.966h285.172c14.341 0 25.966 11.624 25.966 25.966 0 14.347-11.626 25.97-25.966 25.97zM309.127 354.725c0-5.216-4.228-9.444-9.444-9.444h-34.372c-5.217 0-9.445 4.228-9.445 9.444v34.373c0 5.217 4.229 9.445 9.445 9.445h34.372c5.217 0 9.444-4.229 9.444-9.445v-34.373zM696.558 245.092h-285.172c-14.343 0-25.97-11.624-25.97-25.97 0-14.343 11.628-25.966 25.97-25.966h285.172c14.341 0 25.966 11.624 25.966 25.966 0 14.346-11.626 25.97-25.966 25.97zM309.127 201.937c0-5.217-4.228-9.444-9.444-9.444h-34.372c-5.217 0-9.445 4.228-9.445 9.444v34.373c0 5.217 4.229 9.444 9.445 9.444h34.372c5.217 0 9.444-4.228 9.444-9.444v-34.373z" />
<glyph unicode="&#xe938;" glyph-name="iconfont-errorLog" d="M60.722 448c0 0 0 0 0 0 0-246.973 200.211-447.185 447.185-447.185s447.185 200.211 447.185 447.185c0 0 0 0 0 0 0 246.973-200.211 447.185-447.185 447.185s-447.185-200.211-447.185-447.185zM731.499 612.9l-58.693 58.693-164.9-164.9-164.9 164.9-58.693-58.693 164.9-164.9-164.9-164.9 58.693-58.693 164.9 164.9 164.9-164.9 58.693 58.693-164.9 164.9z" />
<glyph unicode="&#xe939;" glyph-name="iconfont-exploreRecord" d="M512 960c-282.788 0-512-229.212-512-512 0-282.767 229.233-512 512-512s512 229.233 512 512c0 282.788-229.233 512-512 512zM839.639 441.61c0-0.287-0.041-0.532-0.041-0.819-0.020-0.143-0.041-0.266-0.041-0.43 0-0.205-0.061-0.41-0.082-0.573-0.020-0.246-0.041-0.451-0.082-0.696 0-0.041-0.020-0.061-0.020-0.082-0.819-5.202-3.174-10.056-6.861-13.804-6.861-8.335-14.377-16.159-21.914-23.839-40.837-41.452-87.695-78.438-138.998-105.288-32.809-17.142-67.83-30.966-104.161-37.622-39.936-7.291-79.933-6.943-119.665 1.72-68.772 14.95-131.052 52.081-185.549 96.502-25.293 20.623-50.156 43.151-71.066 68.526-9.155 11.1-9.155 24.248 0 35.328 6.861 8.335 14.397 16.159 21.934 23.839 40.837 41.452 87.675 78.438 138.998 105.267 32.768 17.142 67.809 30.986 104.141 37.622 39.956 7.311 79.954 6.963 119.665-1.679 68.751-14.95 131.052-52.122 185.528-96.522 25.293-20.603 50.156-43.172 71.086-68.526 3.645-3.748 6.042-8.602 6.84-13.804 0-0.020 0-0.061 0.020-0.082 0.041-0.225 0.061-0.451 0.102-0.696 0.020-0.205 0.041-0.41 0.082-0.594 0-0.123 0-0.266 0.020-0.41 0.020-0.287 0.061-0.553 0.061-0.84 0.020-0.41 0.041-0.799 0.041-1.229s0-0.84-0.041-1.27zM512 570.88c-67.871 0-122.88-55.030-122.88-122.88s55.030-122.88 122.88-122.88c67.85 0 122.88 55.030 122.88 122.88s-55.030 122.88-122.88 122.88zM512 386.56c-33.935 0-61.44 27.505-61.44 61.44s27.505 61.44 61.44 61.44c33.915 0 61.44-27.505 61.44-61.44s-27.525-61.44-61.44-61.44z" />
<glyph unicode="&#xe93a;" glyph-name="iconfont-expressDeliveryTemplate" d="M24.223 779.722h261.966v-712.221h423.649v-108.746h-685.615zM790.68 937.244v-210.735h209.778v-609.89h-662.079v820.625h452.301zM920.639 648.739h-502.443v-54.235h502.443v54.235zM920.639 517.244h-502.443v-54.235h502.443v54.235zM920.639 384.214h-502.443v-54.235h502.443v54.235zM920.639 252.719h-502.443v-54.235h502.443v54.235zM816.262 937.244v-184.128h184.195v26.606l-160.659 157.522z" />
<glyph unicode="&#xe93b;" glyph-name="iconfont-favorite" d="M854.752 733.949h-178.941v-59.644h119.293l119.293-298.214h-238.585c0-90.6-58.535-149.108-149.114-149.108-90.571 0-149.113 58.508-149.113 149.108h-238.58l119.291 298.214h119.29v59.644h-178.937l-119.291-357.858v-357.859h894.684v357.859l-119.289 357.858zM914.397 77.876h-775.394v238.569h178.934c26.157-94.53 105.895-149.108 208.76-149.108 102.81 0 182.61 54.578 208.761 149.108h178.939v-238.57zM332.85 584.842l193.847-193.839 193.851 193.84-44.737 44.735-119.287-119.283v402.585h-59.647v-402.592l-119.294 119.289-44.734-44.735z" />
<glyph unicode="&#xe93c;" glyph-name="iconfont-groupPurchase" d="M694.711 504.908h-92.906v-154.844c0 0-10.323-47.314-49.034-49.895h-92.907v45.594h64.518c0 0 28.389-1.724 28.389 17.204v110.972l-158.286-143.661h-30.969l0.861 32.687h-16.345v-78.281h346.679v220.223zM300.717 661.469h440.446v-439.584h-46.454v14.625l-346.679 0.862v-15.487h-47.314l220.224-221.078c0 0 424.96-12.486 440.444 456.566 0 0 11.614 421.308-447.758 441.955 0 0-402.594 27.089-450.338-441.955l237.428 204.095zM300.717 661.469v-439.584l220.224-221.078c0 0-429.263-33.133-457.651 456.566l237.428 204.095zM348.031 615.019h204.74v-61.938h-188.395v-49.035h156.565l-156.565-141.080h-16.345zM601.805 615.019h92.906v-62.798h-92.906v62.798z" />
<glyph unicode="&#xe93d;" glyph-name="iconfont-help" d="M512.338 896.001c-246.115 0-445.629-199.513-445.629-445.628s199.514-445.63 445.629-445.63c246.116 0 445.629 199.515 445.629 445.63s-199.513 445.628-445.629 445.628zM539.786 236.41c-8.965-7.955-19.31-11.935-31.035-11.935-12.136 0-22.73 3.928-31.782 11.786-9.051 7.859-13.566 18.849-13.566 32.976 0 12.532 4.378 23.078 13.119 31.63 8.753 8.555 19.496 12.831 32.229 12.831 12.532 0 23.077-4.276 31.63-12.831 8.555-8.553 12.832-19.098 12.832-31.63 0-13.927-4.476-24.869-13.428-32.828zM651.241 512.74c-6.861-12.732-15.030-23.749-24.468-32.976-9.448-9.251-26.409-24.817-50.879-46.7-6.764-6.168-12.186-11.589-16.264-16.264s-7.112-8.951-9.101-12.832c-1.989-3.879-3.531-7.758-4.626-11.637-1.094-3.855-2.735-10.667-4.924-20.442-3.78-20.69-15.604-31.035-35.511-31.035-10.358 0-19.049 3.382-26.112 10.147-7.074 6.763-10.593 16.809-10.593 30.137 0 16.712 2.587 31.184 7.746 43.421 5.173 12.235 12.036 22.977 20.59 32.228s20.094 20.242 34.615 32.976c12.733 11.14 21.946 19.544 27.615 25.215 5.658 5.669 10.433 11.986 14.324 18.95 3.879 6.964 5.807 14.497 5.807 22.68 0 15.913-5.919 29.343-17.756 40.286-11.837 10.918-27.105 16.389-45.806 16.389-21.884 0-37.997-5.522-48.331-16.562-10.357-11.042-19.098-27.28-26.272-48.791-6.777-22.455-19.609-33.695-38.508-33.695-11.141 0-20.529 3.927-28.187 11.786s-11.476 16.365-11.464 25.515c0 18.9 6.055 38.048 18.204 57.444 12.123 19.396 29.828 35.463 53.105 48.195 23.276 12.732 50.419 19.096 81.467 19.096 28.845 0 54.299-5.32 76.392-15.965 22.084-10.642 39.142-25.115 51.178-43.419 12.039-18.301 18.056-38.196 18.056-59.681 0.002-16.912-3.431-31.733-10.297-44.466z" />
<glyph unicode="&#xe93e;" glyph-name="iconfont-helpCategory" d="M173.8 582.5c6-6 14.1-9.4 22.6-9.4s16.6 3.4 22.6 9.4l148.6 148.6c12.5 12.5 12.5 32.8 0 45.3s-32.8 12.5-45.3 0l-125.9-126-70.9 70.9c-12.5 12.5-32.8 12.5-45.3 0s-12.5-32.8 0-45.3l93.6-93.5zM406.1 896h-364.5c-23 0-41.6-18.6-41.6-41.9v-364.8c0-23 18.6-41.3 41.6-41.3h364.5c23 0 41.9 18.3 41.9 41.3v364.7c0 23.4-18.9 42-41.9 42zM384 512h-320v320h320v-320zM576 704h416c17.7 0 32 14.3 32 32s-14.3 32-32 32h-416c-17.7 0-32-14.3-32-32s14.3-32 32-32zM992 576h-416c-17.7 0-32-14.3-32-32s14.3-32 32-32h416c17.7 0 32 14.3 32 32s-14.3 32-32 32zM173.8 70.5c6.2-6.2 14.4-9.4 22.6-9.4s16.4 3.1 22.6 9.4l148.6 148.6c12.5 12.5 12.5 32.8 0 45.3s-32.8 12.5-45.3 0l-125.9-126-70.9 70.9c-12.5 12.5-32.8 12.5-45.3 0s-12.5-32.8 0-45.3l93.6-93.5zM406.1 384h-364.5c-23 0-41.6-18.6-41.6-41.9v-364.7c0-23 18.6-41.3 41.6-41.3h364.5c23 0 41.9 18.3 41.9 41.3v364.7c0 23.3-18.9 41.9-41.9 41.9zM384 0h-320v320h320v-320zM992 256h-416c-17.7 0-32-14.3-32-32s14.3-32 32-32h416c17.7 0 32 14.3 32 32s-14.3 32-32 32zM992 64h-416c-17.7 0-32-14.3-32-32s14.3-32 32-32h416c17.7 0 32 14.3 32 32s-14.3 32-32 32z" />
<glyph unicode="&#xe93f;" glyph-name="iconfont-home" horiz-adv-x="1078" d="M879.742 465.778c-9.584 0-17.362-7.778-17.362-17.362v-383.153c0-42.11-34.262-76.371-76.371-76.371h-134.894v265.899c0 9.584-7.778 17.362-17.362 17.362h-189.644c-9.584 0-17.362-7.778-17.362-17.362v-265.899h-134.941c-42.086 0-76.325 34.262-76.325 76.371v383.153c0 9.584-7.778 17.362-17.362 17.362s-17.362-7.778-17.362-17.362v-383.153c0-61.255 49.818-111.096 111.050-111.096h494.203c61.255 0 111.096 49.842 111.096 111.096v383.153c0 9.584-7.778 17.362-17.362 17.362v0zM461.471 237.428h154.919v-248.514h-154.919v248.514zM1051.306 594.283l-125.495 90.493c-16.413 11.899-30.836 40.003-30.836 60.143v148.807c0 35.396-28.798 64.195-64.171 64.195h-44.054c-35.35 0-64.102-28.798-64.102-64.195v-49.448c0-6.343-1.482-9.214-1.644-9.445-0.532 0-3.519 0.185-8.89 4.074l-129.778 93.641c-15.742 11.413-28.451 20.627-31.183 22.733-3.357 2.894-7.964 4.838-12.246 4.699-4.051 0.231-8.774-1.736-12.131-4.653-2.986-2.315-18.705-13.705-37.225-27.132l-462.951-333.914c-13.89-10.047-23.034-24.909-25.766-41.901-2.732-16.969 1.296-33.938 11.274-47.689l17.617-24.539c11.853-16.483 30.766-25.928 51.879-25.928h0.023c2.222 0 4.468 0.116 6.713 0.324 3.056 0.301 5.973 1.389 8.473 3.195l442.116 318.982 442.185-318.982c2.5-1.806 5.417-2.894 8.473-3.195 2.246-0.208 4.491-0.324 6.737-0.324 21.182 0 40.072 9.468 51.74 25.905l17.71 24.539c20.719 28.729 14.214 68.917-14.469 89.613v0zM1037.624 524.996l-17.779-24.655c-5-6.991-13.219-11.135-22.641-11.39l-447.996 323.149c-5.811 4.236-14.839 4.398-20.858-0.208l-447.626-322.941c-9.445 0.255-17.71 4.398-22.803 11.482l-17.64 24.585c-4.584 6.297-6.413 14.052-5.162 21.853 1.25 7.825 5.44 14.654 11.806 19.238l462.997 333.937c13.635 9.908 22.756 16.529 28.984 21.159 5.278-3.889 12.663-9.214 23.034-16.76l129.871-93.734c9.792-7.014 19.608-10.603 29.192-10.603 18.103 0 36.368 13.658 36.368 44.17v49.448c0 16.251 13.172 29.47 29.377 29.47h44.054c16.228 0 29.447-13.219 29.447-29.47v-148.807c0-31.16 19.863-69.936 45.235-88.294l125.519-90.516c13.149-9.491 16.112-27.942 6.621-41.114v0z" />
</font>
</defs>
</svg>
